<svg id="Livello_1" data-name="Livello 1" xmlns="http://www.w3.org/2000/svg" viewBox="0 0 100.36 100">
  <defs>
    <style>
      .cls-1 {
        fill: #000;
      }
    </style>
  </defs>
  <title>mobile-header-logo</title>
  <path class="cls-1" d="M73.95,56.86l3.86-4.31-.14-.27c-.21.06-.49.06-.63.19a3.75,3.75,0,0,0-1.21,1.64,1.87,1.87,0,0,1-.49.64c-.49.54-1,1.07-1.49,1.62-.08.1,0,.31,0,.46l.15,0m4.32,7.33h0v0l0,0m0-.06v.06l0,0,0,0m-.56-.94.56.94c-.09-1-.21-2-.26-3s0-1.86,0-2.79H77.7c-.39,1.67.15,3.39-.25,5.06l.24-.23m-.12,1.54,1.29.36c.29-.75-.28-.71-.58-.89l0,.33-.6,0-.06.25m-3,.82-.21.1a2.71,2.71,0,0,0,.27.73c.17.23.48.36.66.59.55.71,1,1.46,1.61,2.17a3.76,3.76,0,0,0,.94.85,7.14,7.14,0,0,0,1.19.48l.12-.25c-.38-.3-.78-.59-1.15-.91-.54-.47-1.47-.91-1.52-1.44-.13-1.35-1.35-1.51-1.91-2.33m-2.43-1.91L71.64,62c-.57.71-.41,1.31.49,1.61m1.41-4c0,.15-.33.25-.51.37-.06-.2-.2-.4-.17-.59a4.53,4.53,0,0,1,.29-.86,12.93,12.93,0,0,0-1,1.48.44.44,0,0,0,0,.37c.36.63.74,1.24,1.09,1.82-.19.15-.39.24-.47.39a.43.43,0,0,0,.16.39,1.74,1.74,0,0,0,.6,0c2.39,2.19,2.69,2.39,3.55,2.2A2.23,2.23,0,0,0,75.72,64c-.87-.37-1.05-.65-.62-1.58a5.25,5.25,0,0,1-.57,0c-.18,0-.49-.08-.5-.15-.08-.69-.37-1.55-.08-2.06a7.77,7.77,0,0,0,.62-1.81,1.6,1.6,0,0,1,.23-.6c.58-.66,1.22-1.26,1.78-1.93.21-.25.4-.53.65-.23s.07.56,0,.83-.3.58-.35.88c-.1.63-.13,1.27-.19,1.9-.11,1.07-.22,2.13-.33,3.2l.41,0c.29-.76-.13-1.59,0-2.37s.18-1.8.4-2.67A19.87,19.87,0,0,1,78.1,55a1.33,1.33,0,0,0,0,.3c.08.24.17.47.26.7.24-.2.56-.35.69-.6.31-.59.47-1.25.79-1.84s.76-1.12,1.14-1.69a3.14,3.14,0,0,0,.18-.34l-.11-.08-.42.24a6.38,6.38,0,0,1-.5-.81.74.74,0,0,1,.06-.47,3.35,3.35,0,0,0,.37-.93A5,5,0,0,1,81,47.12a1.46,1.46,0,0,0,.14-.52,5.72,5.72,0,0,1,1-3,1,1,0,0,0,.15-.44c.1-.59.17-1.19.29-1.78a34.49,34.49,0,0,0,.79-3.94c.13-1.68,1.08-3.07,1.38-4.67.09-.48.23-1,.3-1.44s.14-1.17.21-1.75l-.21,0a5,5,0,0,1-.31.73,3.76,3.76,0,0,0-.67,2.23c0,.3-.25.61-.38.92a4.34,4.34,0,0,0-.29.66c-.14.56-.24,1.12-.37,1.68-.09.38-.22.76-.31,1.14s-.08.53-.16.79c-.4,1.26-.81,2.52-1.22,3.78-.29.89-.56,1.79-.84,2.69a4,4,0,0,0-.13.52c-.19,1.13-.36,2.26-.56,3.39,0,.26-.26.5-.25.75a1.51,1.51,0,0,1-.87,1.61,1,1,0,0,1-.28,1.43,1.31,1.31,0,0,0-.26.45c-.29.58-.54,1.17-.87,1.73a4.62,4.62,0,0,1-.92,1.15,7.43,7.43,0,0,0-2.79,4.47M64.92,75.58c-.7,0-.81.15-.67.9.73-.4.73-.4.67-.9m3.36,1.12c-.83-.34-1.66-.69-2.5-1a.5.5,0,0,0-.46.18,2.28,2.28,0,0,0,0,.76l.64-.56c.78.46,1.41,1.32,2.58.89-.13-.14-.17-.24-.25-.27M67.94,76l1.2.73c.08-.71-.42-1-1.2-.73m2.94-28.53.28-.13c-.06-.16-.11-.32-.17-.47s-.33-.58-.31-.86c0-.7-.24-.93-1-.73l1.24,2.19m-4.7,19.06a2.71,2.71,0,0,0,.17.91l.17,0c0-.46,0-.92,0-1.38,0-.67,0-1.33,0-2,0-.29-.06-.57-.1-.86-.28-1.58-.05-3.23-1-4.69a20.13,20.13,0,0,0,.25,4,9.53,9.53,0,0,1,.48,4.08m-.74-2.31a3.41,3.41,0,0,0,.32,2.41l.27,0-.37-2.4-.21,0m-1.89-4.87c-.44.66-.08,1.16.17,1.68.41.86.8,1.73,1.21,2.59l-.17.09.58.1c.26-.53.38-1-.31-1.35-.08,0-.13-.18-.17-.28l-1.31-2.83M62.9,46.22c0-.12-.12-.29-.22-.52l-.47.59-.29-.15-.52,5.13c.31.17.55.07.61-.34.11-.68.17-1.37.29-2.05.06-.32.39-.69.3-.92-.28-.68.17-1.16.3-1.73m.94.25a11.25,11.25,0,0,0,.33-1.42,1,1,0,0,0-.32-.62c-.1-.12-.31-.15-.55-.26l-.48.83.72-.2L62,52.23l-.48,0c-.11,1.89.38,4.93.87,5.58l.25-.71.62,1.87.23-.08c-.1-.3-.21-.6-.3-.91s-.18-.45-.11-.63c.23-.62-.05-.68-.59-.53a32.16,32.16,0,0,1-.14-3.85,25.16,25.16,0,0,1,.73-3.53c.22-1,.47-1.95.7-2.92m1.65,11.35a22,22,0,0,0-1.81-4.93.83.83,0,0,0-.19,1.18,15.73,15.73,0,0,1,.8,1.48c.35.78.64,1.57,1,2.36l.24-.1m-.31-15.5c0-.47.07-.82.09-1.17l-.18,0c-.12.34-1,.56.09,1.19m-.35,2.38c-.12.26-.24.42-.24.56a6.87,6.87,0,0,0,.13,1.21c0,.16.21.28.32.42.07-.17.23-.36.2-.52-.09-.5-.24-1-.42-1.67m1.6,8.09V50.15a2.72,2.72,0,0,0,0,2.64m.15,6.78h0m0,0h0M66,58.45a3.68,3.68,0,0,0,.59,1.12c.46-.49.33-.9,0-1.49a7.59,7.59,0,0,1-1-3c0-.77-.37-1.41-.41-2.14S65,51.48,65,50.76c0-1.12.23-2.24.35-3.32-.61-.23-.67,0-.67.36,0,1.27,0,2.53,0,3.8,0,.49.24,1-.26,1.37-.09.07,0,.4,0,.58A25.89,25.89,0,0,1,66,58.45m1,5.4c.25-.43.69-.85.69-1.29a5.22,5.22,0,0,0-.51-1.75c-.16-.43-.06-1-.61-1.24a2.66,2.66,0,0,0-.15.84c.17,1.15.38,2.29.58,3.43m.09,2.28C67,65.39,67,64.64,67,63.89c-.47,1.12-.19,4.17.47,4.71,0-.19,0-.34,0-.5-.11-.66-.27-1.31-.34-2M67,63.86h0s0,0,0,0v0m0,0h0ZM67.4,66a1.27,1.27,0,0,0,0-1.74ZM49.5,84.49c0-.32.06-.52,0-.63a15.93,15.93,0,0,0-1.06-1.54.57.57,0,0,0-.53.07c-.33.52-.6,1.08-.87,1.63,0,.09,0,.21,0,.56a1.76,1.76,0,0,1,2.48-.09m1.88-.32c.51-.62.95-1.29,1.41-1.95l-.15-.18c-.8,0-1,.88-1.42,1.22-.74-.13-.61-1.51-1.69-1.09.4.62.73,1.22,1.14,1.75.14.18.65.32.71.25m.24,4c1.49-1.63,1.69-2,1.26-2.56-.3.39-.62.75-.87,1.14-.37.56-.42.57-.77,0a1.07,1.07,0,0,1-.18-.36c-.1-.59-.5-.62-1.08-.54l1.66,2.31m3.68-3.93c0-.13,0-.29,0-.39a1.56,1.56,0,0,1-.3-1.23c.09-.31-.73-.66-1.25-.54s-.58.35-.46.81a3.34,3.34,0,0,1,0,.86c0,.21,0,.43,0,.64a2.08,2.08,0,0,0,.49-.44c.26-.45.52-.49.85-.08a5.24,5.24,0,0,0,.5.48ZM58.82,84c.42,0,.82.4,1.23.62.19-.4-.56-1.77-1.41-2.41l-1.16,2.25.21.14c.38-.22.76-.61,1.14-.6m15.54-1.8v2.22l.56-.08c.12-2.07.12-2.07-.56-2.14M71,82.52a13.71,13.71,0,0,0,.09,2c1-.07.46-.89.75-1.35.35.57.73.36,1.07.05.26.43-.29,1.13.63,1.34,0-.71,0-1.35,0-2a.48.48,0,0,0-.21-.37.47.47,0,0,0-.41.13c-.4.5-.73.44-1.15,0-.25-.27-.7-.23-.74.18m-2.32.81c0,1.22,0,1.22,1.16,1.2l.54,0-.13-.55H69.18c.29-.43,1.39-.65.16-1,0,0-.07-.21,0-.24a.46.46,0,0,1,.3-.1c.25,0,.49.08.83.14-.07-.23-.1-.42-.14-.43-.51,0-1-.07-1.53-.1l0,.89c0,.07,0,.14,0,.21m-1.5-.47c.14,0,.34.31.64.62-.33.23-.59.52-.68.47a.9.9,0,0,1-.48-.59c0-.17.31-.47.52-.5m-1.09-.46v2.06c1.1.36,1.39.28,2-.49a1,1,0,0,0,0-1.24c-.53-.78-1.26-.53-2-.34m-2.91,2.17a3.5,3.5,0,0,0,.65-.3.9.9,0,0,1,1.41.1c.08.08.25.09.38.13s.1-.2.07-.27a19.31,19.31,0,0,0-.91-1.71.63.63,0,0,0-.59,0c-.41.58-.77,1.21-1.14,1.82l.14.23m-.62,5.07a13.78,13.78,0,0,0,.09,1.78h.58V89.07c-.3.24-.66.39-.67.57m-.69-.29-.67,0,.13,2.1h.54Zm.48-3.72L61.18,88l.16.2c.82-.7,1.64-1.09,2.41,0,.32-.48-.63-2.22-1.37-2.55m-1.64-2a2.53,2.53,0,0,0,1.18,1c.43.18.65-.14.53-.63a.93.93,0,0,1-.29,0c-.3-.15-.59-.31-.88-.46.25-.21.5-.44.76-.63a3,3,0,0,1,.53-.24.81.81,0,0,0-1.21-.2c-.39.3-.92.69-.63,1.22m-.72,6c0,.54,0,1.08,0,1.71a2.78,2.78,0,0,0,.53.12s.15-.22.14-.34a13.91,13.91,0,0,0-.13-1.47c0-.16-.19-.3-.29-.45-.08.14-.23.28-.24.43m-.6-1.59h.64c-.06-.39-.14-.71-.17-1s-.14-.66.37-.73a1.44,1.44,0,0,0,.44-.24c-.15-.15-.29-.4-.46-.43a6.92,6.92,0,0,0-1.24,0c-.6,0-.6.33-.42.7,1.68,0,.39,1.24.84,1.76m-2,1.41c.2.32.57.64.56,1s-.35.69-.54,1l.16.12a4.28,4.28,0,0,0,.46-.41c.26-.31.46-.37.71,0,.08.13.34.16.52.24-.08-.19-.1-.45-.25-.57-.37-.29-.39-.55,0-.86a1,1,0,0,0,.24-.31,1.78,1.78,0,0,0,.08-.4c-.16,0-.36,0-.47,0a2.14,2.14,0,0,0-.39.43l-.83-.53-.2.21M56.41,88c.65-.58,1.23-.4,1.9.07a4,4,0,0,0-1.4-2.43c-.36.76-.69,1.44-1,2.12,0,0,.44.29.49.24m-.93,2.77a6,6,0,0,0-.49.68l.18.18c.24-.2.49-.58.72-.57s.65.3,1,.47l.15-.09c-.21-.3-.58-.61-.58-.91s.34-.72.53-1.08c-.66-.34-.75.32-1,.53-.32-.23-.27-.94-1-.52.17.21.27.46.46.57.43.25.32.46,0,.75m-.4-3c.1.13.32.17.48.25,0-.2.06-.45,0-.58a1,1,0,0,1-.24-1c.13-.51-.46-1-1-.86-.22,0-.42.13-.69.21v2.31c.19-.11.41-.16.5-.3.48-.74.46-.74,1-.08m-2.72,1.71c.2.31.54.62.55.94s-.29.7-.46,1.05a.54.54,0,0,0,.5-.2c.23-.35.44-.39.73-.06a2.87,2.87,0,0,0,.53.39l.16-.15c-.2-.32-.55-.65-.55-1s.33-.69.52-1l-.15-.18-.9.64-.73-.63-.21.23M50,89.4v2.18c.56,0,1.08,0,1.6,0,.08,0,.14-.22.21-.34-.11,0-.23-.14-.34-.13-.77.06-1.06-.21-.84-1s-.09-.78-.64-.71m-2.46,1.15a1.21,1.21,0,0,0,.88,1.09c.2.08.54-.19.83-.3-.46-.31-1-.5-1.08-.78-.14-.75.82-.29,1.1-.93-.3-.09-.64-.32-.87-.23-.47.18-.91.45-.86,1.14m1.12-5L47.49,88.2a5.37,5.37,0,0,1,1.41-.45,3.57,3.57,0,0,1,1.15.4l.12-.2-1.51-2.4M45,90.85a1.25,1.25,0,0,0,.68.71c.29.12.75.33,1-.32-.35-.38-1.19,0-1.23-.93l1-.33c0-.56-.23-.72-.74-.57-.78.24-.83.84-.69,1.44m-.11-4.41c.78-.06.83,0,.78.77,0,.29,0,.58,0,.92l.69,0a4.7,4.7,0,0,1-.13-.77c0-.44-.18-1,.66-.87.07,0,.29-.27.27-.3s-.24-.34-.38-.35c-.45,0-.92,0-1.38,0s-.66.2-.51.67m.1-4.38s-.37.23-.57.36c0,0,0,.08,0,.11l.17-.12c.2.25.52.47.57.75a3.92,3.92,0,0,1-.18,1.2c.23,0,.49,0,.62-.08s.11-.36.1-.54c0-.37-.07-.74-.11-1.13l.9,0c-.3-1-1.12-.12-1.55-.51m-1.12,6a.8.8,0,0,0,.38-.6c0-.15-.31-.3-.48-.46l-.32-.3a2.67,2.67,0,0,1,.35-.34.86.86,0,0,1,.32-.06A.84.84,0,0,0,42.71,86a2.65,2.65,0,0,0-.39.58,3,3,0,0,0,.53.34c.35.13.73.21.49.75l-.87.06-.09.17c.17.12.33.33.49.33a2.18,2.18,0,0,0,1-.22M42.62,90a2.42,2.42,0,0,1,.71.41.59.59,0,0,1-.1.58c-.14.1-.55.09-.61,0a2.73,2.73,0,0,1-.19-.84l.19-.15m-.78-.39v2c1,.24,1.72.08,2-.45a1.12,1.12,0,0,0-.22-1.42,1.39,1.39,0,0,0-1.76-.18m-.51-7,.63.14.17-.15c-.13-.14-.25-.4-.38-.41-.5,0-1,0-1.51,0s-.46.22-.33.55c.87-.17,1-.09.9.78a.89.89,0,0,1,0,.27c-.26.63.11.62.57.61ZM40.15,87l1.16,1.31.13-.14V86l-.2-.1-.44.75-1.32-.85v2.47H40L40,87.11l.19-.09M38.7,91.17c0,.16,0,.44,0,.46a1.91,1.91,0,0,0,.59.05v-1c.31,0,.63,0,.94,0a1.4,1.4,0,0,0,.38-.15c0,.14,0,.27,0,.41s0,.49,0,.86c.27-.13.62-.22.62-.31,0-.68-.07-1.37-.12-2.11l-.45.23c-.5.27-1,.64-1.52,0-.1-.12-.36-.11-.5-.15,0,.63,0,1.15,0,1.67M38,87.53c-.09.78-.1.79.56.69v-2.3L38,86a14.58,14.58,0,0,1,0,1.56m0-4.71-1.34-.72v2.43H37l.17-1.27c.53.1.74.52,1,.9a.56.56,0,0,0,.48.18c.1,0,.2-.28.2-.43a6.1,6.1,0,0,0-.12-1.07,4.29,4.29,0,0,0-.23-.65l-.41.54a.44.44,0,0,1-.08.07m-4.11-.6c0,.76-.09,1.5-.13,2.2.31,0,.59.09.87.11s.59,0,.91,0l0-.58a4.14,4.14,0,0,1-.48.15c-.46.08-.74-.26-.5-.66l.6.18-.62-1.19,1.15.14c-.54-.76-1.19-.09-1.75-.35m-1.41,0-.15,2.31.66,0-.16-2.28h-.35m-3,1.2a3.64,3.64,0,0,0,.67,1c.22.16.64.07,1,0,.05,0,.14-.33.13-.33a5.27,5.27,0,0,1-.68-.29c-.17-.12-.41-.43-.38-.48a3.41,3.41,0,0,1,.65-.61,4.58,4.58,0,0,1,.41-.27c-.15-.1-.31-.26-.46-.27a1.28,1.28,0,0,0-1.3,1.2M28,84l-1-.28c.18.28.25.47.38.56s.49.31.7.26a1.18,1.18,0,0,0,.64-.53c0-.08-.25-.37-.39-.56l-.5-.67h1c-.67-.67-.89-.66-1.67,0l.91,1.13L28,84m-2.67-.89,0,.38.72.18.1-.56Zm-2.47-.23a9.57,9.57,0,0,0,0,1.66,1.2,1.2,0,0,0,.24,0c.06,0,.16,0,.18-.08.36-.83.71-.72,1.09,0,.06.1.29.11.44.16,0-.16.05-.38,0-.47a2.22,2.22,0,0,1-.45-1.3c0-.25-.51-.54-.83-.59s-.57.36-.62.6M47.18,77v.14h1.94l0-.14Zm-3.39.14h1.8s0-.08,0-.11H43.78v.11m-7.39.48,0,.07h7.68v-.07Zm-.61,0h-3v.13h3v-.13m-18.52-.44h-.67c0,.06,0,.12,0,.18H38.25l0-.33h-.5l-1.53,0c-.28,0-.55,0-.83,0-.85,0-1.69.13-2.54.13-5.2,0-10.4,0-15.6,0M54.72,62.86v1.48c.6-.48.16-1,0-1.48M57.1,74.32l-.24.08a3.43,3.43,0,0,0,.43,1c.12.14.5.05.76.07l0-.23-1-.91m-9.39-4.59-1.47.76c.62.42,1.15.16,1.47-.76m1,0a2,2,0,0,0,.49-.06c-.08-.18-.11-.45-.24-.51a1.42,1.42,0,0,0-.75-.06,4.07,4.07,0,0,0-.74.25l0,.16c.42.07.84.16,1.27.21m2.88.82a2.06,2.06,0,0,1,1.79-.9l-.29.75-.18.17,1.48,1.2-.2.13c-.67-.7-1.53-.19-2.29-.35-.08,0-.35.31-.33.44.09.52.29,1,.41,1.54a7.15,7.15,0,0,1,.09,1l-.34,0a16.83,16.83,0,0,1-.3-2.09c0-.62-.26-1.27.17-1.89m.5,1.77c.55.08,1.23-.23,1.35.45a1.19,1.19,0,0,1-.59,1.41,4.35,4.35,0,0,1,0-.46,3.11,3.11,0,0,1,.08-.41l-.79.1Zm1.8-.23.62.43.61-.6c.38.53.08,1-1.23,1.44Zm-4.25,1.25c-.14.44.58,1.41,1.18,1.69l-.54-1.51.21-.12a7.44,7.44,0,0,0,1,1.36,10.56,10.56,0,0,0,1.65,1c0-.15.08-.29.13-.43a.6.6,0,0,1,.14-.24c.6-.51,1.23-1,1.82-1.51a3.22,3.22,0,0,0,.34-2.15.3.3,0,0,0-.15-.14l-.93-.2a.83.83,0,0,1-.56-1.4.57.57,0,0,0,.08-.48,6.52,6.52,0,0,0-.51-.85l-.22.62-.21,0A2.07,2.07,0,0,0,51,70.74c-.18.73-.4,1.45-.6,2.17A5.25,5.25,0,0,1,51,68.77l-1.6-.15.13,1,.68-.58a5.7,5.7,0,0,1-.63,2.18c-.46.78.28,1.42,0,2.15m-.86-.77-.51.94,1,.2.11-.15-.64-1m.48-1.85-1,1c.16.12.36.37.47.33.5-.15.66-.54.53-1.31m-2,1c.49.21.34.62.39,1s.18.89.28,1.33l.27-.08a9.7,9.7,0,0,0,0-1.16,6.33,6.33,0,0,0-.31-1.43c0-.12-.43-.12-.66-.17,0,.18,0,.49,0,.52M33.87,59c.06.65-.15,1.32.28,1.94V59l-.28,0m2.25-5.63L34,51.93v.7c.21.07.54.12.54.2,0,.64.55.7,1,.89a7.1,7.1,0,0,1,1,.66,6.06,6.06,0,0,1,.72.47,2.64,2.64,0,0,1,.5.64,5.16,5.16,0,0,1,.86,1.66,6.2,6.2,0,0,0,1.14,2.26c.11.19.37.29.55.43l.17-.14c-.06-.18-.06-.42-.18-.53-.86-.79-1-1.93-1.53-2.9s-.93-2.49-2.49-2.73c-.08,0-.14-.11-.21-.17m.51,12.37a3.71,3.71,0,0,0,0-.71,3.1,3.1,0,0,0-.38.5,1.2,1.2,0,0,0-.1.53c0,.08.2.13.3.2a2.74,2.74,0,0,0,.21-.52M46.8,25.43c1.54-.36,3.06-.79,4.58-1.2l1.41-.39c-.51-.65-.54-.66-1.13-.47-.75.24-1.49.53-2.25.71-1.29.31-2.59.56-3.88.86-.15,0-.25.26-.48.51a8.83,8.83,0,0,0,1.75,0m4.15-6.94c-.89.39-1.71.92-2.57,1.36s-2,1-3,1.48a2,2,0,0,0-.4.38c.21.08.46.28.63.22a15.79,15.79,0,0,0,1.73-.72q2.08-1,4.15-1.94A3.4,3.4,0,0,0,52,18.9v-.26c-.36-.06-.78-.26-1.06-.14M50,17c.15,0,.24-.25.42-.45-.17-.14-.29-.31-.43-.33a1,1,0,0,0-.65.1c-.72.5-1.41,1-2.1,1.56-1,.76-2,1.54-2.92,2.33a.47.47,0,0,0-.08.45c.11.12.41.25.49.19.72-.52,1.39-1.12,2.13-1.63,1.06-.73,1.87-1.81,3.15-2.23m.3,4.16-5.49,2.2v.81c.58-.17,1.08-.29,1.55-.47,1-.4,2-.83,3-1.25.66-.27,1.33-.53,2-.83.13-.06.15-.33.23-.5-.15-.06-.3-.18-.44-.17a3.22,3.22,0,0,0-.84.21m-3.1,5.42c.75.21,1.52.35,2.25.59.5.16.62,0,.57-.48a5.34,5.34,0,0,0-.65-.26c-.71-.18-1.42-.36-2.14-.5-.1,0-.24.19-.37.3.11.12.2.31.33.35m-2.27.21q1.51,1,3.07,1.82c.2.11.51,0,.76,0-.13-.24-.2-.57-.41-.7-.88-.6-1.79-1.17-2.7-1.71a5.92,5.92,0,0,0-1-.38l-.24.28c.18.23.31.54.54.69m-1.12,1.44c.85.8,1.74,1.56,2.65,2.29.17.14.49.08.74.11l.06-.3a7.18,7.18,0,0,1-1.08-.78c-.58-.6-1.1-1.27-1.65-1.9-.23-.27-.53-.57-.83-.2a.81.81,0,0,0,.12.78m-.27,3.85c-.38-.58-.72-1.2-1.13-1.76a.6.6,0,0,0-.58-.12c-.45.28-.66.61-.24,1.15s1.3,1,1.52,1.87c0,.14.26.25.41.34a.56.56,0,0,0,.84-.51c-.12-.16-.28-.39-.47-.62s-.28-.22-.37-.36m-.12-3.17a3.17,3.17,0,0,0-.74-.36,2.82,2.82,0,0,0,1.18,2.07c.37.32.71.67,1.07,1,.16.15.33.35.52.4a1.83,1.83,0,0,0,.67-.09,1.46,1.46,0,0,0-.2-.52q-1.23-1.27-2.51-2.5M41.77,18.8l.75.31c.23-.3.41-.57.62-.8l3.12-3.48c.26-.29.61-.56.27-1.19-2.12,1.27-3.18,3.38-4.76,5.16m-4.6-4.23c.06,1,0,2,0,3a3.49,3.49,0,0,0,.22.8l.89-.29c.43.42.72.4,1-.07.87-1.65,1.76-3.28,2.63-4.93a2.44,2.44,0,0,0,.14-.6l-.18-.16a2.94,2.94,0,0,0-.8.5,7.52,7.52,0,0,0-.81,1.3c-.5.95-.95,1.92-1.47,2.86-.13.24-.44.39-.78.68V13.47c-.66.21-.85.53-.82,1.1m-2.17,1c.22.77.46,1.53.66,2.31.09.35.07.81.57.75s.5-.49.43-.86a10,10,0,0,0-.3-1.15,8.41,8.41,0,0,0-.51-1.56c-.15-.29-.54-.45-.82-.66l-.27.18c.08.33.15.67.24,1m-5,3.17c1.13.78,2.26,1.55,3.41,2.29.14.09.41,0,.61,0a.5.5,0,0,0,0-.4,8.81,8.81,0,0,0-1.54-1.48,24,24,0,0,0-2.62-1.26c-.32.38-.17.66.14.88m3.14.51c.11.12.41.06.62.09a1.68,1.68,0,0,0-.18-.58c-.62-.75-1.33-1.44-1.9-2.24-.41-.57-.74-.4-1.26-.14.37.34.66.57.9.83.61.67,1.19,1.38,1.82,2M29,22.64l3.67,2.22.21-.17a2.43,2.43,0,0,0-.39-.68c-.49-.42-1-.79-1.53-1.16a1.84,1.84,0,0,0-2-.2m.38-2.1c-.15.1-.3.21-.44.32a4.3,4.3,0,0,0,.41.26c1.1.54,2.19,1.08,3.3,1.58a2.61,2.61,0,0,0,.82.08l-.6-.79a.31.31,0,0,0-.11-.08l-2.34-1.15-.71-.37a2.27,2.27,0,0,0-.33.14M19.21,24.81c-.14-.87-.26-1.74-.42-2.61-.09-.46-.24-.91-.37-1.4-1,.66-1.07.79-.71,1.81.15.42.36.83.49,1.26a3.24,3.24,0,0,1,.05.75l-.23.11c-.53-.42-1-.85-1.59-1.26-.13-.1-.41-.21-.46-.16-.37.39-.69.82-1.05,1.27a6.49,6.49,0,0,1,1.13.18c.86.32,1.7.7,2.56,1a4.38,4.38,0,0,0,.75.15c0-.26-.08-.53-.11-.79,0-.11,0-.23,0-.34m2.38-7a.9.9,0,0,0-.68.21c-.48.42-.91.89-1.36,1.33l-.75.73a8.63,8.63,0,0,1,.83.68c.77.8,1.52,1.63,2,2.12a20.66,20.66,0,0,0,1.74-1.24c.68-.58.63-.72-.06-1.22a10.3,10.3,0,0,1-1.12,1c-.13.09-.44-.06-.67-.11.06-.23,0-.54.19-.67a4.12,4.12,0,0,1,1-.47l-.84-.72-1,1c-.13-.33-.38-.63-.32-.86a1.63,1.63,0,0,1,1.54-.92.57.57,0,0,0-.48-.81m3.3-1c-.49.33-.77.64-1.08.69-.16,0-.59-.47-.54-.62a1.12,1.12,0,0,1,.68-.67c.2,0,.49.29.94.6m3,1.26c-.76-.45-1.47-.86-2.16-1.3-.17-.11-.27-.32-.42-.47-.42-.43-.67-1.35-1.39-1.05A7.09,7.09,0,0,0,22,16.86c-.07.07,0,.45.18.6.83.93,1.69,1.84,2.54,2.75.07.07.22.17.25.14a3,3,0,0,0,.81-.68c.06-.09-.27-.46-.46-.67s-.55-.55-.86-.85c.89-.53,1.2-.48,1.86.15s1.14.58,1.51-.19m1.41-2c-1-.84-1.9-1.77-2.86-2.67a1.89,1.89,0,0,0-.56.41c-.12.17-.18.56-.08.66,1,1,2,1.93,3,2.88.14-.13.34-.33.56-.51s.38-.43,0-.77M32,15.34a4.49,4.49,0,0,0,.87-.63,9.41,9.41,0,0,1-2.49-3l1.7-.23a.77.77,0,0,0-1.19-.68,26.34,26.34,0,0,0-2.63,1.63c-.18.12-.45.42-.4.51a3.2,3.2,0,0,0,.66.73c.14-.36.2-.54.28-.72a.48.48,0,0,1,.83-.17c.64.74,1.18,1.56,1.8,2.32.13.15.44.33.57.27M34.56,17c-.38-.66-.78-1.3-1.16-1.94-.95.47-1,.54-.42,1.16a1.25,1.25,0,0,1,.2.27c.33.69.64,1.38,1,2.07.19.41.5.53.88.26s.26-.5,0-.82-.33-.68-.51-1m1.13-5.14-.88.32-.26-1.12.39-.14.75.93m2.1.56c-.44-.36-.83-.8-1.23-1.2s-1.06-1.09-1.62-1.6a2.41,2.41,0,0,0-.72-.31A3.79,3.79,0,0,0,34,10c-.16,1.37-.31,2.74-.45,4.11a2.35,2.35,0,0,0,.07.52c.38-.26.85-.41.89-.63.19-1.26,1.35-1,2.08-1.58l.08,1.1c.39-.15.73-.25,1.05-.4s.43-.37.06-.68m3.27-1c.28-.82-.36-1.51-1.22-1.95-.36-.18-.7-.41-1.06-.61.53-.85,1-.18,1.58,0L40.22,7.3a15.83,15.83,0,0,0-2.08.6c-.23.1-.52.63-.44.8a3.68,3.68,0,0,0,.89,1c.41.39.87.73,1.29,1.11.11.11.23.38.18.45s-.41.39-.51.34a5.35,5.35,0,0,1-.9-.65l.09-.12H37.21a8.82,8.82,0,0,1,.79,1,1.53,1.53,0,0,0,1.58.83,1.91,1.91,0,0,0,1.49-1.32m1.87-1.9c-.3-.51-.73-.38-1.19-.09.09.55.39.78.86.62.16-.05.38-.44.32-.53m.91,3.44a1.57,1.57,0,0,0-.76.54c-.81,1.23-1.59,2.48-2.36,3.73a1.21,1.21,0,0,0-.15.62c0,.07.3.22.38.17a1.5,1.5,0,0,0,.55-.46c.33-.47.58-1,.91-1.47.59-.84,1.22-1.65,1.83-2.48a3.44,3.44,0,0,0,.2-.41c-.23-.1-.46-.3-.61-.24m3.1-5.07c.39-.72.26-1-.53-1s-1.48,0-2.22,0l-.51,0a5.54,5.54,0,0,1-.12,4.82h2.58c1,0,1,0,.9-1a4.46,4.46,0,0,0-.15-.6c-.15.14-.27.35-.44.41a2.27,2.27,0,0,1-1.06.18c-.16,0-.25-.46-.38-.71.28-.1.56-.21.85-.29.1,0,.26.09.32,0s.36-.27.39-.44-.16-.35-.31-.42a.71.71,0,0,0-.54,0c-.39.18-.65.13-.64-.34s-.24-1,.52-.92a8.75,8.75,0,0,1,1.33.35m1.64,6.9a3.55,3.55,0,0,0-.89.45q-2.07,1.92-4.08,3.91c-.16.16-.18.47-.26.7.24-.06.55-.06.73-.2,1.16-1,2.31-2,3.41-3A15,15,0,0,0,48.78,15l-.2-.25M53.12,8.4A1.06,1.06,0,0,0,53.22,7a1.8,1.8,0,0,0-1.07-.34,6.93,6.93,0,0,0-.93.08c-1,0-1.94,0-3,0l.08,1.68a4.66,4.66,0,0,1,1.12-.66c.21-.05.71.19.72.33.07.88,0,1.77,0,2.67l-.93,0v.62c.81,0,1.58,0,2.35.15s.82,0,.73-.78c-.88.17-1-.34-.91-1,0-.39,0-.79,0-1.17s.12-.76.27-.8a2,2,0,0,1,1,.19c.14,0,.24.21.43.38m3,.74c-.59-.7-.86-.7-1.52,0,.63.75,1,.74,1.52,0m5.43-.42c.07,0,.13-.24.1-.28-.18-.19-.37-.44-.6-.5a.88.88,0,0,0-.65.23c-.16.13-.21.39-.33.58-.46.71-.77,1.56-1.68,1.93l-.55-3.48c-.48.25-1.06-.38-1.55.14.24.27.47.41.51.59a12.1,12.1,0,0,1,.41,2.32A3.4,3.4,0,0,0,57.78,12c.26.42.53.41.82.11s.59-.67.88-1c.69-.81,1-1.9,2.07-2.41m5,1.66c.25-.25.29-.44-.09-.62-.93-.43-1.83-.91-2.78-1.3s-1.32-.31-2.18.89a3.79,3.79,0,0,1,.79,0,2.37,2.37,0,0,1,1,.34c.14.12.13.62,0,.85-.5.9-1.06,1.77-1.66,2.73l1.76.48c.29-.7.53-1.28.76-1.87.11-.29.2-.6.3-.89l.22-.67a8.15,8.15,0,0,1,.82.41,1.69,1.69,0,0,1,.33.4l.66-.71m2,.82c.06,0,0-.35,0-.37-.49-.18-1-.33-1.39-.45A10.16,10.16,0,0,1,64.74,14l1.65.86,0-.26a10.07,10.07,0,0,1,.44-1,6.32,6.32,0,0,1,1.82-2.36M69,14.56c.54-.81,1.14-1.58,1.77-2.43-.74-.87-1-.78-1.63.21s-.94,1.84-2,2.28c-.27.11-.3.36,0,.55.77.41,1.52.86,2.32,1.31a5.09,5.09,0,0,0,.75-.61c.18-.2.42-.59.34-.72-.24-.4-.46,0-.71.11a.85.85,0,0,1-.7-.1.66.66,0,0,1-.19-.6m2.7,3.05L74,14l-1.26-.75c0,.25,0,.44-.06.55-.66,1-1.09,2.15-2.15,2.85a.47.47,0,0,0-.08.37c.39.22.8.41,1.17.59m6.78.34a.57.57,0,0,0-.09-.87c-1.1-.86-2.22-1.68-3.36-2.49-.12-.09-.47-.09-.53,0-.29.42-.51.88-.76,1.33l.25.21c.18-.07.36-.21.54-.2a1.4,1.4,0,0,1,.8.25.69.69,0,0,1,0,.69c-.51.59-1.1,1.11-1.62,1.68a.9.9,0,0,0-.14.6c.47.23,1,.39,1.52.61-.08-1.12.79-1.52,1.34-2.12s.68-.63,1.25,0l-.18.66c.48.2.71,0,1-.36M79.3,21c-.16,0-.41-.39-.61-.6l1.3-.66c.16.86-.22,1.17-.69,1.26m1.62-1c.08-.18.1-.52,0-.61s-.57-.41-.8-.35c-.89.21-1.75.53-2.62.79-.66.2-1.33.37-2.15.6l.58,1c.57-.28,1-.55,1.54-.73s1.42.51,1.48,1-.41.64-.85.71a.53.53,0,0,0-.35.25c0,.08,0,.27.12.35a7,7,0,0,0,.88.74.73.73,0,0,0,.55.11c.11,0,.16-.29.21-.45a4.81,4.81,0,0,1,.13-.65c.42-.94.87-1.87,1.28-2.81m3.33,3.25a12.16,12.16,0,0,0-1.14-1.43.62.62,0,0,0-1,.08,2,2,0,0,0-.21,1.93,12.35,12.35,0,0,1,.25,1.38c-.92,0-1-.64-1.22-1.12-.08-.17-.29-.38-.44-.38a.85.85,0,0,0-.62.28c-.08.1,0,.39.1.58a3.38,3.38,0,0,0,.25.4,2,2,0,0,0,2.61.89c.26-.14.38-.32.24-.72a15.06,15.06,0,0,1-.45-2.23c.57.19,1.21.28.76,1.07-.22.38,0,.54.41.54s.84-.78.52-1.26M94,53.15c0,.65,0,1.3,0,1.95a12.64,12.64,0,0,1-.28,2c-.22.93-.54,1.84-.78,2.77s-.37,1.85-.6,2.76a20.89,20.89,0,0,1-.84,2.83c-.6,1.45-1.29,2.85-2,4.26a.9.9,0,0,1-.65.43c-1.64,0-3.27,0-4.91,0-.38,0-.46-.17-.62-.52-.62-1.32-.25-2.7-.4-4a13.75,13.75,0,0,0-.46-1.81,1.21,1.21,0,0,1,0-.38c0-.16.13-.38.07-.45-.75-.92-.32-2.08-.55-3.11a6.1,6.1,0,0,1-.2-3.39A15,15,0,0,0,82,53.24c.07-.76.3-1.5.38-2.26s.68-1.19,1-1.78a23.51,23.51,0,0,0,.94-2.36,2.83,2.83,0,0,1,1-1.15,1.93,1.93,0,0,0,.92-2.45c-.09-.25,0-.57-.07-.83a13.88,13.88,0,0,0-.64-1.89c-.15-.33-.29-.77-.86-.72-.1,0-.24-.49-.4-.83a2.91,2.91,0,0,0,2.2-2.63,1.09,1.09,0,0,0-.22-.48c-.39-.5-.36-.8.18-1.16.22-.15.48-.24.69-.4a2.25,2.25,0,0,0,.17-3,7.73,7.73,0,0,1-.76-.68c-.11-.16-.06-.44-.08-.66a1.52,1.52,0,0,1,.58.13,11.59,11.59,0,0,0,1.05.89.49.49,0,0,0,.71-.53c-.12-.32-.06-.84-.64-.9-.11,0-.25-.3-.29-.47a5.35,5.35,0,0,0-2.05-2.68c-.07-.07-.38,0-.49.13-.62.62-1.16.89-1.49.52A1.88,1.88,0,0,0,82,26.61a1.71,1.71,0,0,0-1.41,2.75c.1.18.32.28.5.41l.71.5a5.59,5.59,0,0,1-.57.69,2.75,2.75,0,0,1-.59.33l.46,2.48c-.57-.27-.94-.47-1.33-.61C78.68,32.75,77.68,32,76.4,32A16.11,16.11,0,0,1,74,31.69a1.61,1.61,0,0,1-.94-2.48c.26-.34.08-.51,0-.85-.22-.62-.78-1-1-1.52-.47-1.27-1.7-1.59-2.62-2.25-.4-.29-1.21-.08-1.82,0a18.2,18.2,0,0,0-1.87.47,1.92,1.92,0,0,0-1.54,1.17,11,11,0,0,0-.07,1.37c-.15.84-.38,1.66-.55,2.49,0,.19-.05.47.05.58.55.56,1.14,1.08,1.71,1.61a.64.64,0,0,1,.14.16c.16.31.24.76.49.88s.7-.05,1.06-.09a3.44,3.44,0,0,1,.42,0,6.9,6.9,0,0,1-.49.94,27.67,27.67,0,0,1-3.1,2.89,5.46,5.46,0,0,0-.68,1c-.12.19-.18.47-.35.56a6,6,0,0,0-2.3,2.73A12.28,12.28,0,0,1,60,42.67a1.64,1.64,0,0,1-.69.5c-.56.25-1.18.4-1.71.7-1.16.65-2.27,1.37-3.42,2a3.55,3.55,0,0,1-1.16.53,1.76,1.76,0,0,1-1.06-.24c-.72-.41-1.36-1-2.1-1.33A9.26,9.26,0,0,1,47,42.83a8.8,8.8,0,0,0-1.3-.91.91.91,0,0,1-.32-.44,16.68,16.68,0,0,0-.7-2.51c-.65-1.37-1.45-2.67-2.19-4a14.05,14.05,0,0,1-1-1.62C41,32.21,40,31.63,39.3,30.74c-.38-.47-.74-.95-1.08-1.44-.06-.09,0-.28,0-.4a2.66,2.66,0,0,0,.94.19c.28-.06.51-.33.76-.5.49-.33,1-.7,1.47-1a.94.94,0,0,0,.46-1.1c0-.33-.08-.66-.11-1a.83.83,0,0,1,.59-1,1,1,0,0,0,.21-1.75,12.52,12.52,0,0,0-2.23-1.43,3.22,3.22,0,0,0-3.76.39c-.37.33-.73.69-1.13,1a2,2,0,0,0-.73,2,1.16,1.16,0,0,1-.85,1.41,8.72,8.72,0,0,0-3.44,2.17c-1,.93-1.89,1.92-2.87,2.83a1.24,1.24,0,0,1-1,.36c-.23-.08-.35-.6-.4-1a4.81,4.81,0,0,1,0-1.41,6.45,6.45,0,0,1,.41-1.25c.07-.19.24-.36.25-.54,0-1.06,0-2.13,0-3.19a1.3,1.3,0,0,1,.21-.75c.75-.94.75-1.46-.12-2.31-.34-.33-.65-1-1.2-.7a4.33,4.33,0,0,0-1.6,1.48c-.17.28.2,1,.46,1.4.38.65.39.7-.29,1.11a1,1,0,0,0-.49.64,40.5,40.5,0,0,1-1,5,6,6,0,0,0,.47,4.31A7.5,7.5,0,0,1,24,36.76,1.75,1.75,0,0,1,23.6,38c-.68.81-1.46,1.52-2.18,2.29a4.1,4.1,0,0,0-.53.75,5.91,5.91,0,0,0-1,3.52,12.56,12.56,0,0,1-.24,2.13c0,.37,0,.75,0,1.12a30.53,30.53,0,0,0-.17,3.27,1.92,1.92,0,0,0,.82,1.21c.56.39,1,.72.88,1.49a3.67,3.67,0,0,0,0,1.1c.05.38.3.77.27,1.13-.08.94.52,1.69.62,2.52A31.86,31.86,0,0,1,22,62.65c0,.77.09,1.55.12,2.32,0,.46,0,.93,0,1.38A1.68,1.68,0,0,1,21.48,68a1.14,1.14,0,0,0-.27,1.64.39.39,0,0,1,0,.36.63.63,0,0,1-.41.14c-1.33,0-2.65-.08-4-.1s-2.37,0-3.56,0a13.64,13.64,0,0,0-1.5.13,1.12,1.12,0,0,1-1.19-.69q-.86-1.59-1.67-3.2a4,4,0,0,1-.13-.66c-.48-1.68-1-3.34-1.45-5a29.62,29.62,0,0,1-1-6.56c0-1.39-.21-2.81-.19-4.21,0-1,.16-1.91.25-2.86.14-1.31.23-2.63.44-3.93s.54-2.53.82-3.78c.18-.8.32-1.62.57-2.4s.59-1.49.9-2.23c.76-1.82,1.51-3.64,2.31-5.44a15.73,15.73,0,0,1,.95-1.55c.14-.24.21-.54.37-.77.33-.5.69-1,1-1.46.63-.88,1.21-1.79,1.89-2.63s1.46-1.64,2.21-2.44c1-1.09,2-2.23,3.13-3.24s2.39-1.94,3.6-2.9c.34-.27.67-.54,1-.77,1.53-1,3-2.08,4.61-3A43.34,43.34,0,0,1,34.63,8.5c1.07-.44,2.16-.83,3.26-1.21.7-.24,1.42-.44,2.14-.62.89-.23,1.79-.43,2.69-.62a7.33,7.33,0,0,1,1.4-.21c2,0,4,.09,6,0A19.12,19.12,0,0,1,54.45,6c1.24.2,2.45.54,3.69.77.83.15,1.68.18,2.51.34s1.83.47,2.75.64A16.94,16.94,0,0,1,67.5,9.55a42.45,42.45,0,0,1,3.8,2c1.41.85,2.79,1.75,4.12,2.72C77,15.43,78.5,16.63,80,17.86c.86.71,1.64,1.53,2.45,2.3,1.77,1.69,2.91,3.86,4.37,5.78a14.5,14.5,0,0,1,2,3.63c.47,1.22,1.07,2.4,1.62,3.58.33.71.72,1.4,1,2.12a12.05,12.05,0,0,1,.39,1.49c.36,1.38.72,2.77,1.1,4.15.11.41.33.79.42,1.2.13.64.18,1.3.29,1.94a55.18,55.18,0,0,1,.41,9.1M38.84,31.49l.15-.11a5.19,5.19,0,0,1,.64.59c.52.66,1.3,1.16,1.33,2.15,0,.22.44.41.52.67a14,14,0,0,0,1.6,2.82,7.38,7.38,0,0,1,1.32,3.48,2.26,2.26,0,0,0,.14.59c.27.85.26.87-.63,1.19l-.21-.71-.61.75c0-.41-.08-.67,0-.83a3.17,3.17,0,0,0,0-3,8.11,8.11,0,0,0-.47-1.17c-.61-1-1.27-2-1.91-3.07S39.58,33,39,32a2.42,2.42,0,0,1-.17-.54m1.08,9.34a2.08,2.08,0,0,1,.48-2.64c.72,1.07-.46,1.69-.48,2.64m1.42.53-.08,1.27c-.79-.62-.76-.78.08-1.27m-.42-4.1c1.27.83,2,4.21,1.25,5.78,0-.22-.08-.44-.09-.67A10.26,10.26,0,0,0,42,40.92a23,23,0,0,0-.64-2.33c-.06-.21-.31-.36-.39-.57a1.49,1.49,0,0,1-.06-.76m2.13,6.94a1.8,1.8,0,0,1-.32-.35,6.43,6.43,0,0,1,.86-.77s.26.16.55.34c-.43.32-.75.57-1.09.78M26.38,32.32l.18-.11.86.93,1.34-2.35.27.14-.83,1.9a9,9,0,0,0-.13,1.13c0,.36-.24.84.43,1,.17,0,.31.48.36.75q.25,1.52.42,3.06c0,.3-.86.62-1.15.43s-.7-.49-1.12-.78l.26-.48,1,.76c.36-1-.19-1.81-.48-2.64A2.42,2.42,0,0,1,27.53,35c.12-.86-.64-1.28-.86-2-.08-.23-.19-.46-.29-.69M21.81,49.26c-.42-.53-.3-3.28.23-4.1a4.06,4.06,0,0,1,.09,2c-.17.67-.22,1.37-.33,2.06m.44,1.9-.17,2.26a2.84,2.84,0,0,1,.17-2.26M34.51,74.47c-.09-.13-.21-.22-.2-.31q0-1.26.13-2.51a1,1,0,0,1,1-.9c.5,0,.57.51.65,1,.26,1.35-.6,2.05-1.59,2.77m.25-4.5.49-1.56,1.36,1.26-1.85.3m1.63,2.77c-.11-.74-.32-1.48.41-2.1a1.56,1.56,0,0,1-.41,2.1m1,.16a3.85,3.85,0,0,1-.41.27c.25-.73.46-1.3.65-1.88.13-.41.24-.77-.21-1.13s-.86-.64-.28-1.21c0,0-.14-.3-.16-.46a1.19,1.19,0,0,1,.08-.39,1.42,1.42,0,0,1,.26.22c.17.24.33.49.49.74a3.51,3.51,0,0,1,.22.34,3.57,3.57,0,0,1-.62,3.51m5.43-.54-.17.19C42,72,41,71.49,40.74,70.75a3.22,3.22,0,0,1,.17-2.69c2.09,2,2,2.68,1.93,4.29m-5.66-8.6c-.08.83-.15,1.66-.27,2.48-.06.43-.23.85-.32,1.28s-.09.67-.14,1.07a1.57,1.57,0,0,1-1.06-1.41c0-.48-.11-.54-.55-.4l.84-1.91.41.15c-.79-1.21,0-1.91.49-2.77.24.44.42.73.57,1a.94.94,0,0,1,0,.47M39.42,62c-.28-.55-.5-1.12-.77-1.68-.34-.72-.71-1.42-1.06-2.14a1.39,1.39,0,0,1-.06-.43l.23-.1a17.75,17.75,0,0,0,4.8,6.47,2,2,0,0,1-2.08-.87c-.12-.23-.37-.39-.55-.59a3.48,3.48,0,0,1-.53-.66m-2.6-1.54c.33,1.29,1.72,1.88,1.47,3.25a4.42,4.42,0,0,1-.22.65h-.23l-.23-.75c-.14-.45-.27-.9-.41-1.34A.5.5,0,0,0,37,62c-.24-.14-.7-.24-.71-.38a6.34,6.34,0,0,1,.19-1.38c0-.06.07-.17.09-.17,1.17.13.43-.64.47-1a2.33,2.33,0,0,0-.14-.6l.3.38a12,12,0,0,0,1,1.55,4.4,4.4,0,0,1,.63,2c.07.32,0,.63.36.87.17.11.18.46.29.76a1.21,1.21,0,0,1-.91-1.21,4.34,4.34,0,0,0-1.25-2.21c-.08-.1-.28-.09-.51-.15m-2.74,6.06c.16.29.32.58.46.89a2.39,2.39,0,0,1-.35.23l-.41-1,.31-.15M35.2,51.2A1.53,1.53,0,0,0,33,50.27a1,1,0,0,1,1.2-.69A2.16,2.16,0,0,1,35,50c.49.49.95,1,1.74.93a.73.73,0,0,1,.46.21c.45.41.89.84,1.33,1.26a3.88,3.88,0,0,1,1.2,1.78c.2.72.65,1.37.92,2.08.37,1,.65,2,1,3s.83,2.22,1.23,3.33a6.8,6.8,0,0,1,.2,1l-.16.09c-.26-.24-.54-.48-.79-.74-.6-.62-1.19-1.26-1.79-1.89a3.53,3.53,0,0,1-.58-.64c-.45-.82-.8-1.7-1.3-2.49a6.37,6.37,0,0,0-1.25-1.26,12.91,12.91,0,0,0-1.07-.77l.26.63c-.47.11-.71-.13-.68-.5,0-.67.09-.67-.39-1a2.83,2.83,0,0,0,.24,2.22.87.87,0,0,0,.54.2c.58,0,.64.36.67.86L36.1,58a2.86,2.86,0,0,1-.37,2.9.46.46,0,0,0,0,.4c.56,1-.29,1.87-.44,2.8a4.6,4.6,0,0,1-.26.74l-.22,0a8.34,8.34,0,0,1,.06-.94c0-.11.24-.2.25-.31.09-.84.13-1.68.21-2.51.05-.5.17-1,.28-1.58-.52-.46-1.62-2.71-1.3-3.63a9,9,0,0,0,.2-2.27l-.21-.08c-.08.09-.23.18-.24.28-.06,1.26-.16,2.52-.12,3.77,0,.42.39.83.6,1.25a.84.84,0,0,1,.07.19,11.27,11.27,0,0,1,.31,2.2l-.34-.45c-.06.11-.11.16-.11.22a6.71,6.71,0,0,1-.51,2.78.8.8,0,0,0,.27,1.08c.28.21.28.79.42,1.23a1.31,1.31,0,0,1-1.3-1.47,7.11,7.11,0,0,0-.06-2.68,6.82,6.82,0,0,1-.15-2.36c.65.56-.11,1.4.48,2.12a30.68,30.68,0,0,0-.49-7.51l.2,0,.38.44c-.13-.94.44-2-.3-2.83a.55.55,0,0,1,.11-.08l.19-.05-.45-.7c.78-.15,1.43-.3,2,.33M33.43,66.63c-.15.24-.25.62-.47.71a11,11,0,0,1-4.7,1.29,11.39,11.39,0,0,1-2.72-.18A14.57,14.57,0,0,1,22.64,67c-.17-.1-.16-.49-.27-.85a25.63,25.63,0,0,0,3.05,1.28,11.15,11.15,0,0,0,2.33.14c.31,0,.62.07.93.09a9.52,9.52,0,0,0,3.4-.88c.17-.06.33-.21.49-.21a5.49,5.49,0,0,1,.85.09m-7.06-.34-.13.17-.65.1v-1l.78.69m.52-24.14A1,1,0,0,0,27.8,41c.26-.28.44-.49.63-.69.43-.44.87-.88,1.32-1.3a.38.38,0,0,1,.37,0c.71.59,1.41,1.18,2.08,1.81a1,1,0,0,1,.14.64c0,1.94,0,3.87,0,5.81,0,1.47.12,2.94.13,4.41,0,3.46,0,6.92,0,10.38,0,.82.07,1.65.14,2.47a2,2,0,0,1-1.27,2,10.06,10.06,0,0,1-4.36.6c-.45,0-.61-.15-.6-.61s0-1-.07-1.62l-1.15.26v0h0l-.34.83c-.47-.58-.71-1.32-1.54-.86L23,64l.24-.06.19.41L24,64c.15.69.37,1.28,1.18,1.19v0h0a2.76,2.76,0,0,1,.13-.62,2.69,2.69,0,0,1,.38-.51c.16.15.58.07.46.49,0,0,.07.1.27.15a3.28,3.28,0,0,0-.14-1.29c-.17-.3-.67-.41-1-.61.25-.62.4-.63,1.07-.07V49.93l-1.06.61L24.18,49h0v0a10.9,10.9,0,0,1-1.23-.69c-.38-.28-.32-.61.16-1.29,0,.28,0,.48,0,.67s0,.48.52.4c.74-.14.6.45.55.9h0v0a1.44,1.44,0,0,1,.59.08,8.18,8.18,0,0,1,.88.72c.63-.37.74-.77.49-1.28h0l-.89.28c0-.07-.23-.4-.19-.43a1.68,1.68,0,0,1,.75-.36c.08,0,.21.33.33.51h0c0-.92.11-1.83.13-2.75s0-1.92,0-2.87a1.07,1.07,0,0,1,.59-.81m-1.65,1.41c-.11,0-.31-.2-.31-.3,0-.61.42-.78,1.07-.72-.13.48,0,1.07-.77,1m.69,3.3-1.11-.1,1.06-.8.05.9m-2.38-4.65a8.1,8.1,0,0,1,1-1.63,5.44,5.44,0,0,1,1.5-.82c.06,0,.27.08.27.12s0,.39-.12.48c-.43.37-.9.69-1.35,1s-.61.5-.93.72a1.07,1.07,0,0,1-.38.09m-1.33,7.56c-.13-.06,0-.77.05-1.21.7.44.69,1,.58,1.65a12.23,12.23,0,0,0,.08,2.28,4.12,4.12,0,0,1-.14.81l-.24,0c0-.74.11-1.48.1-2.21,0-.44.22-1-.44-1.26m1.47,2.49c-.2,0-.45-.38-.69-.59l.23-.24.35.3.81-.3.15.26c-.28.21-.56.54-.86.57M22.46,53.7l.64.44h0c-.06-.51-.17-1.07.71-.76.08,0,.31-.1.31-.15,0-.76.51-.53.9-.57l0,0h0l.12-1.2.88.08.07.64-1.07.48v0h0c-.5.67-1,1.37-1.91,1.48v0h0l-.14.8H22.7l-.24-1.25m0,4.2a5.62,5.62,0,0,1,.64,0c.1.58.39.89,1,.79.05,0,.18.14.18.22s-.11.15-.19.2-.34.19-.5.27L22.47,57.9m3,5.67-.8.41c-.23-.66-.5-1.25-1.56-.93l.47-1.18.69.75a2.39,2.39,0,0,0,.29.34c.26.19.53.35.92.61m.72-6.07-.76.36-.14-.09.42-1,.49.72m0-1.7-.18.21L25,55.32c.15-.13.29-.35.45-.37.67-.07.5.51.66.84m-.77-2.24.4-.13.26.47c-.36.08-.74.27-.89.16-.42-.31-.06-.42.23-.5m-.7,7.94-.14.76c-.22-.33-.33-.64-.55-.77a2.35,2.35,0,0,0-.87-.12l0-.64c.41-.11.41-.11,1.58.78m-.12-2.12c.71.17.75.6.57,1.14-.78-.13-.92-.41-.57-1.14M23.4,57.05l.7-.11.17.76c-.4-.12-1,.15-.87-.65m1.27-1c.45.28.46.33.11.79l-1.37-1.46-.38.36.24-.79c.91.54.88-.56,1.58-.88-.1.37-.08.71-.24.82-.57.41-.58.78,0,1.16M22.89,45.88a6.24,6.24,0,0,0-.23-.8.87.87,0,0,1,.18-1.16,1.05,1.05,0,0,0,.24-.32c.3-.6.69-.63,1.14-.09.08.09.21.13.32.26-.56-.28-1-.13-1.31.46.36,0,.08,1,.8.47l.09.17-.47.26c-.23.13-.6.21-.66.39s.1.56.52.61c.21,0,.4.3.72.57l-1.32.18-.53-1.32.2-.09.32.42M46.05,73l.13.74a5.57,5.57,0,0,0-.89-.13,5.45,5.45,0,0,0-.94.2c-.48-.24-.65-.73-.79-1.51-.31-1.73-.69-3.49-2.14-4.81a5.56,5.56,0,0,1-1-2.22c-.07-.19.1-.67.23-.7a2.65,2.65,0,0,1,1,.09c.21,0,.41.27.59.25.72-.08.86.21.9.89a7.27,7.27,0,0,0,.6,1.91c.21.56.6,1,.41,1.73-.06.2.27.5.4.77a6.78,6.78,0,0,0,.51,1.14c.48.65,1,1.25,1.55,1.88l-.14.14L46.05,73m-7.37-1.77a4.84,4.84,0,0,0-1-3.42,1.3,1.3,0,0,1-.24-1.32c.1-.26-.05-.61-.11-1a8.67,8.67,0,0,1,1.6-.22,1,1,0,0,1,.73.53,23,23,0,0,1,.67,2.39.56.56,0,0,1-.07.43,1,1,0,0,0,0,1.3.87.87,0,0,1,.13.51,1.65,1.65,0,0,0,1,1.81c.44.24.86.53,1.29.8-.72.81-1.26.2-1.78-.06a1.31,1.31,0,0,0-1.39,0,2.33,2.33,0,0,1-.65.17,3.55,3.55,0,0,1-.14-1.89M21.6,68.67a1.15,1.15,0,0,1,1.32-.6c1,.4,2,.86,3.06,1.15a8.64,8.64,0,0,0,2,.1,11.09,11.09,0,0,0,5.22-1.39,1.59,1.59,0,0,1,1.37.4c.4.39.1.94-.33,1.22a4.79,4.79,0,0,1-3.28,1,27.7,27.7,0,0,0-3.31,0c-1.22,0-2.44-.06-3.66,0a4.25,4.25,0,0,1-1.93-.48,1.23,1.23,0,0,1-.45-1.44m12.51,5.11c.12.67-.05.93-.72.93H27.45c-2,0-3.92,0-5.87,0-.7,0-.88-.26-.85-.88a13.62,13.62,0,0,0,0-1.73c0-.59.19-.75.75-.74q4.77,0,9.53,0c.74,0,1.47-.08,2.21-.13s1,.43.87,1.25a4.55,4.55,0,0,0,0,1.28M21.29,50.32c0,.51.1,1,.15,1.56-.93-.18-1.29-.64-1.27-1.42A39.22,39.22,0,0,1,20.24,46c.1-.75-.08-1.95,1.37-2.09,0,.18.08.42,0,.55a2.88,2.88,0,0,0-.33,2c.08,1.28,0,2.58,0,3.87m.48-8.42-.17-.09a2.66,2.66,0,0,1,.32-.95c.85-1,1.75-1.87,2.64-2.8a.73.73,0,0,1,.18-.11l.51,1.17c-.29.3-.68.68-1,1.09-.16.18-.22.44-.38.63A7.21,7.21,0,0,1,22.77,42c-.32.25-.66.34-.7.88a.86.86,0,0,1-.93.73,3.56,3.56,0,0,0-.58.11l.88-1.59L21.3,42l.47-.1m4.29-18.28a.41.41,0,0,1-.35,0A4.87,4.87,0,0,1,24.95,22c0-.28.53-.64.85-1,.48.29,1.1.49,1,1.11a5.27,5.27,0,0,1-.72,1.5m-.45,8.89c.27.63.43,1.31.66,2a2,2,0,0,0,.35.57,1.15,1.15,0,0,1,0,1.59c-.14.17-.24.43-.42.52a.8.8,0,0,1-.68,0C24.23,36,24,34.38,23.47,32.9a3.09,3.09,0,0,1-.38-1.64c.08-.47.16-.93.28-1.39.25-1,.53-1.93.77-2.9a2.31,2.31,0,0,0,0-.82,2.1,2.1,0,0,1,1.16-2l.14.11L24.35,26l.82,0a3.24,3.24,0,0,1,.24-1.08c.15-.26.55-.36.88-.56.36.26.37.48,0,.83a8,8,0,0,0-.95,1.29c0,.06.06.22.13.44l.78-1.18a2.25,2.25,0,0,1-.13,1.88,11.53,11.53,0,0,0-.63,1.74,4.9,4.9,0,0,0,.12,3.14m9.71-7.9c-.16-.74,0-1.15.74-1.29l-.74,1.29m3.48,8.29c.38.41,1,.85.63,1.65-.1.22.18.67.39.94.68.88.59,1.7-.32,2.22a.53.53,0,0,1-.47-.11c-.32-.28-.57-.64-.89-.91a1.36,1.36,0,0,0-.7-.27c-.12,0-.39.26-.37.29a1.67,1.67,0,0,0,.43.6c.42.33.88.61,1.31.93a.59.59,0,0,1,.19.41c0,.67-.06,1.35,0,2a2.49,2.49,0,0,0,.51,1.14c.43.57,1,1.06,1.43,1.61a6.42,6.42,0,0,1,.38.61c.26.38.55.73.79,1.12a2.14,2.14,0,0,1,.43,1,40.19,40.19,0,0,0,.58,5.2,4.13,4.13,0,0,1-.19,1h-.21c-.67-.82-1.36-1.62-2-2.46-.32-.42-.5-1-.85-1.36-.62-.69-1.33-1.3-2-2-.5-.51-1-1.08-1.45-1.59s-.78-.69-1.14-1.07a5.14,5.14,0,0,1-.78-1c-.52-.95-1-1.94-1.5-2.87a3.89,3.89,0,0,0-.95-.95,11.16,11.16,0,0,0-1.69-1.26c-.54-.3-.45-.71-.37-1.11a11.46,11.46,0,0,1,.55-2,4.16,4.16,0,0,1,.8-1c.42,1.24.71,2.43,1.88,3a2,2,0,0,0,1.35,0,1,1,0,0,0,.68-1.06,11.39,11.39,0,0,1-1.35.4,1.18,1.18,0,0,1-1.35-.75A1.82,1.82,0,0,1,32.73,33a4.48,4.48,0,0,0,.41-1c-1.08-.14-2.22.85-3.54,2.91-.19-.32-.55-.67-.59-1.05a9,9,0,0,1,.09-2.05,2.17,2.17,0,0,1,.36-.85,8.56,8.56,0,0,1,1.21-1.76,22.45,22.45,0,0,1,2.23-1.62A3.75,3.75,0,0,1,35,27a.62.62,0,0,0,.42-.44,5.84,5.84,0,0,1,1-2.84c.15-.26.49-.42.75-.61.49-.38,1-.77,1.5-1.11a1,1,0,0,1,.76,0c-1.85,1.36-3.75,2.63-3.87,5.17l.19.15c.13-.15.35-.29.36-.44a3.57,3.57,0,0,1,1.27-2.29c.76-.74,1.35-1.74,2.52-1.87a8.2,8.2,0,0,1,1.62.13v.25a3.64,3.64,0,0,1-1.16.12c-.53-.11-.76.21-1.14.42a5.53,5.53,0,0,0-1.76,1.69,15.16,15.16,0,0,0-1,1.32,1.19,1.19,0,0,0,0,.73s.29.05.45,0c.36,0,.83.91.6,1.3a1,1,0,0,0,.25,1.53.79.79,0,0,1,.21.6,2.59,2.59,0,0,0,.88,2M40,25.51l.51.82.63-.71c.53.73.21,1.45-.77,1.8a1.46,1.46,0,0,0-.63.49c-.25.34-.45.56-.94.37A1.61,1.61,0,0,1,37.88,26a3.05,3.05,0,0,1,1.58-1.62A3.89,3.89,0,0,1,41,24.3c.16,0,.28.41.37.54L40,25.51M53.51,47a20.49,20.49,0,0,0,2.56-1.32c.73-.39,1.44-.81,2.17-1.21a5.45,5.45,0,0,1,.73-.26l.49.37c-.57,1.61-2.12,1.74-3.33,2.37A15.64,15.64,0,0,0,54,48.23c-.47.36-.85.66-1.44.27a1.1,1.1,0,0,0-.62-.06,7.29,7.29,0,0,1-1.07.11c-.21,0-.41-.23-.61-.36.18-.2.33-.51.55-.57.91-.25,1.87-.34,2.74-.67m-2.94,2.92c-.65.07-.91-.18-1-1a.84.84,0,0,1,1,1m-2.14-3.11a8,8,0,0,0-2.77-2c-.76-.36-1-.85-.71-1.49s.63-.71,1.15-.26a15.9,15.9,0,0,1,1.2,1.12c1,1,2.32,1.35,3.51,2,.23.12.38.38.54.54a5,5,0,0,1-1.55.66,2,2,0,0,1-1.37-.55m3,15.9-.21.05-.57-.87.13-.18c.24.07.6.07.68.22s0,.51,0,.78m.51,2c.21-.11.59.11.9.18l0,.19a2.86,2.86,0,0,0-.66.36,2.75,2.75,0,0,0-.39.63c-.21-.55-.32-1.08.2-1.36m9.25,8c1.12.48,1.21.9.35,1.63-1.25-.57-1.3-.79-.35-1.63m-2.58-1.51a11.11,11.11,0,0,1,.8,1.08c0,.05-.27.41-.33.39a8.08,8.08,0,0,1-1-.48l.54-1M11.1,70.71h9.65a2.12,2.12,0,0,1-.54.44c-.49.19-.45.55-.44,1,0,.8,0,1.6,0,2.39,0,.26.22.71.39.74a14.7,14.7,0,0,0,2.08.08c.74,0,1.48,0,2.22,0h3.88c1.68,0,3.37,0,5,0a1.81,1.81,0,0,0,1.73-.73c.67-1.09,1.89-1,2.81-1.48a.33.33,0,0,1,.31.06c.33.56.83.35,1.31.35a3.09,3.09,0,0,1,2.11.36.71.71,0,0,0,.67-.13.62.62,0,0,1,1,0c.92,1,2.1.55,3.17.56.4,0,.78-.38.43-.93a7,7,0,0,0-1-1.52c-.47-.42-.33-1-.55-1.41a.18.18,0,0,1,0-.14c.06-.12.1-.31.19-.34.79-.22.82-1.38,1.75-1.43.68,0,1.37-.07,2-.15.17,0,.32-.22.49-.34-.78-.76-.93-.74-1.75-.27-.42.24-1,.25-1.38.49-.65.37-1.24.84-1.94,1.33a2.54,2.54,0,0,1-.36-.58c-.28-.84-.53-1.7-.77-2.55a3.4,3.4,0,0,1-.19-1.06,9.52,9.52,0,0,0-.48-3.49c-.28-.83-.13-1.07.68-1.43,1-.46,2-2.26,1.7-3.23a9.56,9.56,0,0,0-.9-1.59l-.17,0c0,.23,0,.46.07.68.1.62.25,1.24.31,1.87a.9.9,0,0,1-.27.66c-.62.55-1.29,1.06-2,1.61l-1.6-5A2.67,2.67,0,0,1,42,57.67c0,.49.27.54.77.63-.5-1.06-.41-2.21-1.25-3a3.78,3.78,0,0,1,1.58,2.37c.13-.54.33-.84.07-1.41a7.44,7.44,0,0,0-2.46-2.73c-.78-.62-1.36-1.5-2.17-2.06S37.09,50,36,49.76c-.56-.1-1-.67-1.56-1-.14-.09-.34-.1-.49-.18a1.31,1.31,0,0,1-.54-.42c0-.1.18-.34.34-.62a.43.43,0,0,1-.12-.15,5.26,5.26,0,0,1-.12-.52,4.17,4.17,0,0,1,.49.21,27.29,27.29,0,0,1,2.45,1.49c.77.57,1.45,1.27,2.16,1.92l.39.37.19-.1c-.06-.21-.07-.48-.2-.61-.81-.79-1.62-1.58-2.48-2.32-.29-.25-.74-.28-1.06-.5s-.5-.59-.81-.79c-1.21-.76-1.14-2-1.11-3.14,0-.12.15-.23.26-.39a6.08,6.08,0,0,0,2.05,2.85,22.06,22.06,0,0,1,2.34,2.36c.88.94,1.74,1.9,2.6,2.85.19.21.35.45.52.68.82,1.09,1.64,2.18,2.47,3.26a1.36,1.36,0,0,0,.66.42c-.09-.43,0-1-.3-1.26-.67-.76-.32-1.61-.37-2.41-.06-1,0-2-.08-3-.05-.71-.25-1.42-.35-2.13A2.6,2.6,0,0,1,44.36,45c.1,0,.25.06.36.12a15.11,15.11,0,0,1,1.92,1.1,3.81,3.81,0,0,1,1.91,2.86,2,2,0,0,0,.62,1.14,2.35,2.35,0,0,0,3.1.55c.49-.35.91-.8,1.39-1.17a14.65,14.65,0,0,1,2.08-1.56,16.57,16.57,0,0,1,2.2-.72c.65-.24.85-.1.85.62a3.91,3.91,0,0,0,.42,1.26l1.2,3.2a.1.1,0,0,1,0,.07c-.59,1.36.3,2.71,0,4.07a1.79,1.79,0,0,1-.14.29,1.33,1.33,0,0,0-2,0,11,11,0,0,0-1.94,1.84,7.51,7.51,0,0,0-1,2.52,16.37,16.37,0,0,0-.08,2.3A7.6,7.6,0,0,1,54.51,67a.6.6,0,0,1-.58.17l.43-.79-.19-.12-.68.94a4.88,4.88,0,0,1-.9.15.65.65,0,0,1-.51-.28,1.32,1.32,0,0,1,.87-1.48c.75-.07.8-.59.88-1.29a2.27,2.27,0,0,1-.86.06,5,5,0,0,1-1-.6,5.33,5.33,0,0,1,.57-.41,9.15,9.15,0,0,0,1.31-.7c.15-.11.06-.53.08-.8a2.53,2.53,0,0,0-.83.21,3.23,3.23,0,0,0-.59.72l-.26-.07a2.84,2.84,0,0,1,.21-1c.21-.32.6-.52.86-.81a1.65,1.65,0,0,0,.19-.59L51.84,61a3.13,3.13,0,0,0,0-.62,1.73,1.73,0,0,0-.23-.44c-.1.1-.28.2-.29.32-.07.69-.31,1.16-1.1,1.23-.1,0-.29.47-.22.63a4.47,4.47,0,0,0,.78,1.18c.8.86.39,1.78.19,2.68a1.28,1.28,0,0,1-.47.68V64.52l-.35,0-.37,1.3-.24,0V62.88l-.7.64-.71-1.13c-.63-.13-.07.83-.55.94-.95-.37-1.22-.33-1.45.31a.69.69,0,0,0,.06.6.94.94,0,0,0,.65.16c.35,0,.7-.17,1.05-.2.72-.07.93.18.83.94a2.35,2.35,0,0,0-2.68.79,1.43,1.43,0,0,0-.08.48,2.63,2.63,0,0,0,.48,0,1.71,1.71,0,0,0,.64-.19c1.33-.91,2.11,0,2.79.92.43.6,1,1.14,1.44,1.7l.06-.24,1-.4c.19-.07.4-.09.58-.17.78-.34,1-.31,1.45.39s.86,1.39,1.3,2.12c.51-1-.88-1.63-.67-2.78.47.55.83,1,1.19,1.42.07.08.15.23.12.3-.31.87,0,1.87-.56,2.69-.11.16-.06.43-.08.72,1.12-.52,1-1.1.88-2.32a2.66,2.66,0,0,1,0-.66,2.22,2.22,0,0,0-.79-2.4,5.18,5.18,0,0,1-.66-.77c.12,0,.26-.12.34-.08a1.63,1.63,0,0,1,1.2,1.41c.08,1.11.25,2.22.25,3.32A2.78,2.78,0,0,0,57.58,73c.32.48.65,1,1,1.4l1.35-1.29a2.1,2.1,0,0,1,.2,2.41l.2.09c.55-.37,1.11-.73,1.66-1.11a4.87,4.87,0,0,0,.84-.65c.12-.13.21-.49.13-.58A7.81,7.81,0,0,0,61.57,72c-.15-.1-.57.12-.82.26a5.46,5.46,0,0,0-.74.58l-.22-.08,0-.83,1.54-.25c-.51-.42-.82-.8-1.37-.39-.22-.63-.78-.69-1.32-.57-.83.19-.69,1-1,1.61a3.9,3.9,0,0,1-.05-.48c0-.11.11-.27.07-.31-.63-.62-.17-1.3-.12-2,0-.13.06-.36.09-.36.9,0,1.56-1.14,2.57-.58a5.93,5.93,0,0,1,.84.73c-1,.09-1.82.18-2.61.22-.57,0-.76.32-.67.92,1.3-.39,2.71-.84,3.86,0s2.27,1.65,1.79,3.37a1.22,1.22,0,0,0,.48-1.71c-.64-.75-1.35-1.43-2-2.18-.32-.37-.5-.86-.83-1.22a2.11,2.11,0,0,0-2.78-.41c-.77.45-1,.37-1.3-.4a.59.59,0,0,1,.55-.83,10.22,10.22,0,0,1,1.28.36c.19.05.4.07.74.13a1.34,1.34,0,0,0-1.36-.91c-.45,0-.95-.36-1.37.09a.2.2,0,0,1-.19,0,5.33,5.33,0,0,1-1-1.49,4.35,4.35,0,0,1,.2-1.64,2.12,2.12,0,0,0,.07-.61,11.52,11.52,0,0,1,.29-2.61c.08-1.22,1.2-1.38,1.62-2.18,0-.09.38,0,.58,0l.58-.08-.25,1.44a2.86,2.86,0,0,0-.32.61,6.36,6.36,0,0,0-.26,1.53,12.08,12.08,0,0,0,.28,1.59,3.47,3.47,0,0,1,0,.7c0,.21-.14.51,0,.62.44.54.49,1.32,1.2,1.7.42.23.67.74,1.07,1,.69.54,1.46,1,2.14,1.53a20.87,20.87,0,0,1,1.53,1.54,7.72,7.72,0,0,1,1,1.06c.26.4.44.82-.13,1.28a7.15,7.15,0,0,0-1,1.45,9.85,9.85,0,0,1-.74.78v-.85c-.49.34-.89.66-1.33.91-.75.42-1.53.81-2.3,1.19-.05,0-.18-.1-.27-.16.4-.27.15-.5,0-.78,0-.09.08-.36.2-.45.49-.36.5-.35.09-.84a1.21,1.21,0,0,0-.88,1c-.09.45-1.37,1-1.76.86s-.61-1.17-.42-1.76a4.69,4.69,0,0,0,.2-.67,3.66,3.66,0,0,0,0-.6c-1.35.56-1.84,1.82-2.33,2.9l-.86.06.2.18c-1.06.32-1.06.31-2.48-.53a1.28,1.28,0,0,0-.69,0c-.15,0-.29.13-.44.13-1.87,0-3.75-.05-5.62,0-1.68,0-3.35.1-5,.12-1.36,0-2.73,0-4.09,0-2,.06-4,.21-6,.24s-3.7-.07-5.55-.08c-1.19,0-2.39.09-3.58.1-1.78,0-3.56,0-5.34,0-.73,0-1-.57-1.38-1-.82-1.06-1.55-2.2-2.29-3.32a5.34,5.34,0,0,1-.38-.93m4,5.83c1.39.54,2.76.21,4.09.15l1.25.33,0-.17-.58-.11c.6-.54.93-.5,1.29.15a16.49,16.49,0,0,1,5.67-.5l-.49.18s0,.08,0,.12h1.36l0-.09-.3-.08c.2,0,.65-.49.68.22,0,0,.16.05.25.06.41,0,.82.07,1.23.06.12,0,.24-.16.36-.25l-.32-.19h3.09v.07l-1,.07s0,.1,0,.15H35c0-.06,0-.11,0-.17H33.2v-.13h6.88s0,.06,0,.09H38.88c0,.05,0,.1,0,.16.54,0,1.24.21,1.57,0,.52-.42,1-.15,1.46-.19.25,0,.52.21.85.17l-.32-.14,0-.17c.42.08.83.18,1.25.23a14.46,14.46,0,0,0,1.7.13c.59,0,1.18-.08,1.77-.12.28,0,.57.08.77-.28,0-.09.56,0,.78.12s.5.21.88-.08c.11-.08.36,0,.54,0s.19.15.29.21.13,0,.23,0l-.43-.28h1.5L52,77H49.48c0,.07,0,.14,0,.21H52l0,.41c.44,0,1-.49,1.23.43h-.87c-3.87,0-7.74,0-11.61,0q-9.4,0-18.8.15c-1.66,0-3.32.17-5,.26a.89.89,0,0,1-.21,0A3.44,3.44,0,0,1,15.48,77c0-.15-.25-.26-.39-.48m2.09,2.72a2.17,2.17,0,0,1,.57-.17c1.32,0,2.63,0,3.95,0,1.5,0,3-.06,4.5-.06,4.61,0,9.21,0,13.82,0q6.43,0,12.86-.15A2.07,2.07,0,0,0,54.59,78c.12-.16.4-.2.67-.21-.13,1.06-.9,1.47-1.75,1.84l.22.44a1.52,1.52,0,0,1-.47.16c-1.91,0-3.82-.11-5.73-.11s-4,.08-6.07.12c-2.28,0-4.56.1-6.84.12-3.73,0-7.45,0-11.18,0-1.34,0-2.68.07-4,.13a2.23,2.23,0,0,1-2.23-1.27m2.34,2.44c.55,0,.9.07,1.24.07,2,0,3.93,0,5.89,0,1.45,0,2.89-.11,4.34-.13,2.15,0,4.29,0,6.44,0,1.31,0,2.62-.14,3.92-.12s2.77,0,4.15-.09c2.31-.12,4.63.05,7,.07q4.05,0,8.1,0c1.26,0,2.52-.11,3.78-.12,3.67,0,7.35,0,11,0,1.54,0,3.08-.09,4.61-.12a4.59,4.59,0,0,1,.81.16c-.85.9-1.55,1.63-2.24,2.38-.33.36-.51.23-.7-.14a11.08,11.08,0,0,0-.69-1.23.52.52,0,0,0-.44-.1c-.38.56-.74,1.13-1.07,1.72-.06.11.05.32.1.54,1.4-1.23,1.49-1.23,1.94,0-1,.67-2,1.37-3,2S72.37,88,71.17,88.64s-2.69,1.24-4,1.85c-.82.37-1.63.75-2.46,1.08a19,19,0,0,1-2.09.7c-1.08.29-2.16.57-3.26.77a30.92,30.92,0,0,1-4.14.6c-2.84.13-5.7.22-8.54.13A44,44,0,0,1,41.47,93c-.68-.1-1.37-.2-2-.35a10.68,10.68,0,0,1-1.13-.4c-1.68-.57-3.41-1-5-1.72-1.89-.81-3.72-1.79-5.55-2.73-1.19-.61-2.36-1.25-3.5-1.94a13.17,13.17,0,0,1-1.52-1.26c-.82-.69-1.65-1.37-2.46-2.08a8,8,0,0,1-.72-.86M60.8,76.63l.1.23-2.47,1.07c.45-1.22,1.42-1.24,2.37-1.3m-1.53-.88c0,.45-1.9,1.76-2.78,2a4.23,4.23,0,0,1,2.78-2m-3-.44c0,.18-.22.34-.33.51-.11-.19-.3-.36-.33-.56A1.1,1.1,0,0,1,56.39,74a13,13,0,0,1-.13,1.34m.65.61a1.78,1.78,0,0,1-1.7,1.53c0-.13-.08-.34,0-.38.54-.39,1.1-.75,1.72-1.16m2.33-15.74,1.41-2.59A2.66,2.66,0,0,1,61,58a12,12,0,0,1,.92,3.07l-.22.07a4,4,0,0,0-.29-.7,2.54,2.54,0,0,0-.73-.91c-.4-.22-.78.09-1,.43l-.22.26-.15-.06m-.43,2.9a1.66,1.66,0,0,1,.28-2.48c.21.34.65.72.58,1a6.08,6.08,0,0,1-.86,1.49m1.72-.89,0,.09.37-.61c0,.58.58,1.19-.26,1.73-.28.18-.24.79-.43,1.17a2.92,2.92,0,0,1-.59.62c-.22-.31-.78-.29-.78-.83s.19-.68.58-.38a6.19,6.19,0,0,0,.44-.61,1.35,1.35,0,0,0,.22-.61A15.41,15.41,0,0,0,60,61.11c-.08-.65,0-.78.88-.73l-.36,1.79m2.68-20c-.17.38-.35.76-.52,1.14s-.29.71-.46,1.15c-.29-1-.06-1.58,1-2.29M61.82,43a7,7,0,0,1-1.24,3.59,2.68,2.68,0,0,0-.17,1c-.05.32-.11.64-.19,1.1-.18-.21-.33-.3-.33-.4,0-.9,0-1.8,0-2.7a11.27,11.27,0,0,1,.22-1.47.69.69,0,0,1,.12-.38c1.28-1.16,1.42-3.06,2.76-4.2.39-.33.56-.85,1.12-1.1.37-.16.56-.72.83-1.1l.39-.54.26,0c0,.28.12.69,0,.81a3,3,0,0,0-.77,1.48,2.33,2.33,0,0,1-.47.62l-.47-.5c-.48,1.1-.68,2.26-1.68,3a1.14,1.14,0,0,0-.34.79m16.26,2.19-.63-1.89c.85.15.94.45.63,1.89m-2-4.41a2.65,2.65,0,0,1-.24-.88l.16,0c.55.63,1.14,1.24,1.64,1.91.13.17,0,.53,0,1-.65-.78-1.16-1.33-1.59-1.93m-8.85.51a13.07,13.07,0,0,1,1,1.2c.6.94,1.37.61,2.14.33a4.16,4.16,0,0,1,.89-.29c.18,0,.38.15.54.23l-1.3.75a3.21,3.21,0,0,1-2.43-.38c-.48-.48-1-.91-1-1.67l.19-.18m-.45-2.4c0-.13.14-.31.22-.46l.64-1.06a.84.84,0,0,1,.93.44,6.84,6.84,0,0,0,1.11,1,1.26,1.26,0,0,1,.4.61c.16.85.29,1.71.39,2.57a.51.51,0,0,1-.29.38,2,2,0,0,1-2.26-.82c-.17-.23-.48-.39-.57-.64a15.72,15.72,0,0,1-.56-2M64.95,27.6c-.34-.35-.31-.75,0-.94a1.77,1.77,0,0,1,1.16-.23c.22,0,.38.44.56.68A14.42,14.42,0,0,0,68.13,29a1,1,0,0,1,.27,1.35,16.15,16.15,0,0,1-1.45,2c-.34.42-.78.32-1-.21a10.37,10.37,0,0,1-.3-1.24,7.29,7.29,0,0,1-1.06-.43c-.37-.21-.42-.5,0-.78a2,2,0,0,0,.45-.41c.67-.86.68-.94-.11-1.75m7.83,6.5s.07-.06.24-.21a5.65,5.65,0,0,1,0,.83,4.63,4.63,0,0,1-1.89,2.93c-.9.68-2.16,0-2.61-1a6,6,0,0,1-.32-2.56,1.38,1.38,0,0,0-.39-1.14c-.07-.07-.07-.27,0-.39a3.32,3.32,0,0,1,1.65-1.35,1,1,0,0,1,.66.25c.54.71,1.21,1.39,1,2.42a3.19,3.19,0,0,0,0,.59c.22,0,.42-.08.5,0,.63.51.9.44,1.21-.32m-.22-1.55c-.8-.2-1-.72-.73-1.69l.73,1.69m-1.74-4.78.46.9-.13.08-1.39-1.68.86-.18a3.13,3.13,0,0,1,1.47,1.64l-1.16-.9-.1.14m3,6.74c-.05-1.12.07-1.15,1.18-1.3,1.81-.24,3.16.64,4.43,1.69a7,7,0,0,1,1.07,1.66l-.86-.12a6.75,6.75,0,0,1,0,.74c-.12,1.05-.23,2.1-.38,3.15,0,.31.06.75-.52.8a1.27,1.27,0,0,1-1.26-.63c-.31-.46-.54-1-.88-1.39a1.41,1.41,0,0,1-.2-1.74c.23-.43-.12-.74-.27-1.12s-.39-.59-.95-.46a18.23,18.23,0,0,0,.4,2.65,3,3,0,0,1-1.27,3.32,1.34,1.34,0,0,1-.73,0c-.31-.06-.61-.17-.91-.26l-.07.24c.59,1.08,1.74.44,2.61.71a1,1,0,0,1-1.11.27,6.9,6.9,0,0,0-1.1-.11c-.08,0-.21,0-.25,0-.54-.62-1.35-1-1.54-2-.1-.49-.5-.85-.35-1.47s.9-.83,1.27-1.31c.08-.1.29-.13.32-.24.33-1,1.33-1.72,1.36-2.87,0-.07,0-.13,0-.2m9.33-6.37-1.35.24c-.24-.49.11-.75.43-.92a.75.75,0,0,1,1,.18c.26.3.79.43.9.75s-.19.72-.36,1.07a1.21,1.21,0,0,1-.43.55c-.09,0-.43-.15-.48-.29a.64.64,0,0,1,.15-.58.6.6,0,0,0,.13-1m1,8.94.33-1.39c.71.8.62,1.14-.33,1.39m.07,4c0-.06.66-.17.79,0a3.4,3.4,0,0,1,.82,3.09c0,.26-.1.88-.77.66-.13,0-.37.28-.58.42s-.26.14-.32.1a.66.66,0,0,1-.23-.33c-.23-.64-.47-1.29-.67-1.94-.11-.34-.16-.7-.26-1.17.68.07,1.12-.09,1.22-.79M81.44,80c-1.37-.1-2.76,0-4.15,0-1,0-2,.1-3.06.13-.6,0-1.2,0-1.81,0H54.64l0-.2c.67-.32,1.12-1.07,2-.91A.87.87,0,0,0,57,79c.93-.31,1.86-.6,2.77-.95a7.21,7.21,0,0,0,.94-.6,2.74,2.74,0,0,1,1.74-.67,1.35,1.35,0,0,0,1.39-.89A2.63,2.63,0,0,1,64.5,75c.66-.68,1.53-1.24,1.19-2.41a.32.32,0,0,1,0-.2,1.1,1.1,0,0,1,.12-.18c.18.3.39.61.56.94a.58.58,0,0,1,0,.43c-.22.55-.48,1.08-.72,1.63a.69.69,0,0,0,0,.26,6.61,6.61,0,0,0,1.22.17c.14,0,.33-.3.39-.49s-.09-.34-.11-.52c-.08-.74-.15-1.48-.23-2.23l.21-.05c.68.8,1.31,1.65,2.07,2.38s1.62,1.29,2.54,2A11.66,11.66,0,0,0,72,75.3a10.49,10.49,0,0,0,0-2.7,14.34,14.34,0,0,0-1.17-2.77,7.65,7.65,0,0,1-1.17-3,14,14,0,0,0-.54-2.65c0-.21-.28-.37-.34-.58a4.75,4.75,0,0,1-.23-1.12c0-.65,0-1.31,0-2l-.18,0c-.15.16-.42.32-.42.49,0,.73.06,1.46.08,2.19,0,.89,1,1.37.93,2.3-.44-.12-.66.09-.47.57.28.73.63,1.44,1,2.14s.71,1.3,1.05,2c0,.07,0,.17,0,.32-1.35-.91-1.54-2.46-2.25-3.69a5.54,5.54,0,0,0,1.21,3.46c.39.41.9.69,1.31,1.08a2.81,2.81,0,0,1,1,1.92c0,.8,0,1.61,0,2.58a12.11,12.11,0,0,1-4.82-5.43c1.56.68,2.28,2.55,4.1,2.83l-3.28-3.78-.3.34-.85-1.6c-.81,1-.38,2.15-.61,3.28-.23-.2-.37-.31-.49-.44-1-1.09-2-2.24-3-3.25a12.77,12.77,0,0,0-2.06-1.22.54.54,0,0,1-.19-.48c.3-.63.65-1.23,1-1.85.19-.37.47-.71.23-1.19a1.76,1.76,0,0,1,0-.71h.25v1.45l.5,0-.28-1.32c.28.14.45.17.47.25.3,1,.56,2,.86,3a3,3,0,0,1,.34,1.44c0,.3.44.68,1,.35l.09.67a1,1,0,0,1,1.13.93L65.9,69a2.62,2.62,0,0,0,0-.66,5.49,5.49,0,0,0-.39-1.06c-.31-.61-.65-1.2-1-1.79l-.35.38-1.8-4.53c.79.23.76.8.94,1.2s.32.92.47,1.38H64a1.8,1.8,0,0,0,.06-.67c-.17-.53-.45-1-.6-1.54-.27-.95-.48-1.91-.71-2.87-.05-.22-.12-.42-.15-.54l-.67.3c-.2-1.41-.4-2.71-.56-4s-.27-2.51-.54-3.78l-.25.6c0-.74-.61-1.43-.1-2.2a2.44,2.44,0,0,0,.2-.78A9.46,9.46,0,0,1,61,47.16c.28-.72.63-1.42.93-2.09l.48.31a5.84,5.84,0,0,0,.21-.61c0-.2,0-.43.08-.6a3.46,3.46,0,0,0,.65-1.9c.54.12.75-.15,1-.63a10,10,0,0,1,1-1.55v0h0a1.68,1.68,0,0,1,.56-1.85c.09-.06.09-.24.14-.37l1.17-3c.57.45.19.93,0,1.32-.47,1.16-1,2.3-1.54,3.44a1.83,1.83,0,0,1-.36.41v0l0,0c0,.25,0,.5.06.75l.22,0,.36-.54c.05.11.15.22.14.31a3.08,3.08,0,0,0,1.51,2.81,3,3,0,0,1,.82,1.63,21,21,0,0,1,.18,2.31c0,.21.24.6.34.59.94-.1,1.34.75,2,1.1s1.31.76,2,1.11c.12.06.34-.07.51-.12-.07-.17-.08-.43-.21-.5-.7-.38-1.45-.67-2.14-1.07-.31-.18-.65-.32-.79-.82s-.7-.68-1.07-1-.38-.94-.2-1.54c.33-1.13,1.35-1,2.11-1.23A9.73,9.73,0,0,1,75,43.45c.17,0,.35-.18.5-.16.33,0,.77,0,.94.26a8.47,8.47,0,0,1,1.2,1.87,1,1,0,0,1-.31,1.38,1.41,1.41,0,0,0-.71,1.29A1.74,1.74,0,0,1,75,49.56a3.87,3.87,0,0,0-.83,0c-.15,0-.29.16-.43.25a2.92,2.92,0,0,0,.3.38,3.28,3.28,0,0,0,.45.29l-2,1.51c.46.17.81.32,1.16-.2.22-.33.77-.44,1.39-.76a3.18,3.18,0,0,1-.29.89c-.93,1.18-1.88,2.33-2.84,3.51l-1.1-.59c1.23,1.65,1,1.43.46,2.17h0v0c.81,0,1.07-.76,1.49-1.24a16.49,16.49,0,0,0,1-1.62c.19-.28.51-.46.7-.73a15.66,15.66,0,0,0,.93-1.55c.49-.92.93-1.86,1.41-2.78.25-.48.55-.94.85-1.46l.24.73c.68-.06.74-.6.94-1.06s.6-1,.43-1.69c0-.17-.15-.32-.18-.49s-.05-.63-.11-.95a3.24,3.24,0,0,0-.21-.75c-.11-.26-.3-.55.07-.67a1.23,1.23,0,0,1,.76.14c.2.08.46.42.52.38a1.15,1.15,0,0,0,.5-.61,8.71,8.71,0,0,0,.06-1.17,2.84,2.84,0,0,1,.18-.64c.17-.5.35-1,.53-1.5l-.22-.13-1,1.39c0-.16-.2-.44-.12-.54.66-.88.38-1.92.51-2.88s.18-1.7.3-2.54c0-.11.19-.21.29-.31.08.12.21.24.23.37,0,.41-.06.78.47,1.09.2.12,0,1-.07,1.47,0,.18-.19.33-.31.53.63.06.87-.28.91-1a6.28,6.28,0,0,1,.3-1.23,12.44,12.44,0,0,0,.37-1.4c.06-.42,0-.86.37-1.19.1-.09,0-.42,0-.63-.07-.36-.23-.72.33-.86.11,0,.23-.2.28-.33.3-.85.59-1.72.88-2.59.82.42,1,1.08.71,2.24l-.43,1.71.54-.13,1,.69c0,.36-.4,1-.77.87s-.51-.58-.77-.92l-.11.42c-.09.36-.06.86-.28,1-.63.5-.6,1.19-.76,1.84a5.15,5.15,0,0,1-.15.79,8.49,8.49,0,0,0-.44,2.88,11.47,11.47,0,0,1-.59,2.28c-.45,1.57-.92,3.13-1.36,4.7-.2.71-.35,1.44-.5,2.17,0,.1,0,.21.16.34.17-.5.35-1,.53-1.49s.3-.69.41-1.05a6.78,6.78,0,0,1,.31-1.21c.13-.24.49-.35.75-.52a2,2,0,0,1,.32.58,3.62,3.62,0,0,1-1,2.85c-.16.22-.06.62-.15.91a7.13,7.13,0,0,1-.44,1c-.11.22-.4.51-.33.65.21.47,0,.74-.25,1.1a12.69,12.69,0,0,0-1,1.82,2.14,2.14,0,0,0-.07.74l.36.08.81-2.24.12,0a2.07,2.07,0,0,1,0,.75,4.42,4.42,0,0,0-.31,2c.11,1,0,2,0,3,0,.38.11.76.11,1.15,0,.22,0,.55-.17.63-.62.35-.53.94-.68,1.5a17.19,17.19,0,0,0-.23,3.61,1,1,0,0,0,.23.62c.37-1.68-.28-3.55.88-5.06h.26c0,.64.07,1.28.15,1.91a5.72,5.72,0,0,0,.26.87,2.32,2.32,0,0,1,.14.57c0,.85,0,1.7,0,2.56,0,.55-.16,1.15.38,1.6.07.05,0,.26,0,.44l-4.58-3c-.16.51-.09.76.33,1,1.24.76,2.45,1.55,3.62,2.41a4.64,4.64,0,0,1,1.39,1.53,5.53,5.53,0,0,1,.4,2.15c-.37-.66-.76-1.31-1.12-2a3.75,3.75,0,0,0-1.83-1.42c.2,1.24,1.4,1.48,1.93,2.55a4.94,4.94,0,0,1-1-.1c-1-.32-1.9-.69-2.85-1l-.1.16c.36.38.71.76,1.08,1.13a.75.75,0,0,0,.38.13c.06,0,.13-.09.18-.07l2.3.65.07.21c-.32.17-.64.48-1,.48a1.77,1.77,0,0,0-1.34.71,3.37,3.37,0,0,1-.93.77c0-.23,0-.47,0-.7a4.2,4.2,0,0,0,0-1.7A8.42,8.42,0,0,0,78,71.06c-.06-.07-.22,0-.32-.09s-.56-.2-.66-.4c-.25-.49-.61-.48-1.3-.34.74.59,1.33,1.07,1.94,1.55.41.32,1.06.47.78,1.22,0,0,0,.12.07.16a2.3,2.3,0,0,1,.29,2.26.64.64,0,0,1-.44.24c-.7.07-1.41.11-2.11.15-.32,0-.56,0-.63-.44a21,21,0,0,1-.5-2.71,6.68,6.68,0,0,0-.46-2.25,12.88,12.88,0,0,0-.89-1.52,1.66,1.66,0,0,1-.2-.84l2.15,1.65.22-.24a3.53,3.53,0,0,0-.65-.69,2,2,0,0,1-.89-1c-.16-.38-.67-.62-1-.91-.1-.08-.28-.12-.33-.23-.58-1.19-1.85-2-1.87-3.5a5.16,5.16,0,0,1,0-1c.07-.39.21-.77.33-1.21-.48.22-1.45-.15-1.54-.58a.67.67,0,0,1,.23-.56,8.13,8.13,0,0,0,2.4-2.24c.18-.29.58-.44.79-.72a1.93,1.93,0,0,0,.17-.74L73.42,56c-.66.7-1.36,1.37-2,2.1s-1.9,1.67-2.38,1.4c.3-.29.59-.55.85-.83.48-.52,1.19-.86,1.31-1.67h0v0c-.65.4-1.55.49-1.7,1.43-1-.54-1.07-1.62-1.34-2.59,0-.13-.05-.27-.1-.39-.39-1-.39-1,.8-1.15l-1.71-2.84c.66-.58,1,0,1.23.35.66.83,1.25,1.7,1.88,2.58.36-.52.18-1-.33-1.62s-1.09-1.43-1.64-2.15a5.72,5.72,0,0,1-.64-.83,2.79,2.79,0,0,1-.14-.82h1.72l.08-.35c-.21-.08-.42-.24-.61-.22-.91.06-1.35-.52-1-1.37a.57.57,0,0,0,0-.33A20.54,20.54,0,0,0,67,44.19a26,26,0,0,0-1.3-2.4,1.43,1.43,0,0,0,.08,1.93,3.31,3.31,0,0,1,1,3.48,1.81,1.81,0,0,0-.07.71c0,.81,0,1.61.08,2.42.12,1.7.21,3.4.44,5.08A20.45,20.45,0,0,0,68.06,58a5.49,5.49,0,0,1,.1,1.22c0,.31,0,.62,0,1.18.49-.66.76-.41.8-.06a1.09,1.09,0,0,0,.89,1,.66.66,0,0,1,.53.75,8.19,8.19,0,0,0,.82,3.4c.43,1,.84,2,1.28,3a3.16,3.16,0,0,0,.39.56l.94,1.27-.21.16L72.4,69.1c-.24.83.37,1.18.7,1.6a2.93,2.93,0,0,1,.9,2.58c0,.12.21.43.34.45.42,0,.48.27.47.61a10.28,10.28,0,0,0,0,1.52,1.08,1.08,0,0,1-.69,1.26,3.1,3.1,0,0,1-.59.14l.14-.57-1.39.16,1,.28,0,.21c-.83,0-1.75-.85-2.43.24l-.5-.82c0,1.1.12,1.11,1.06,1,.67-.06,1.36.12,2,.09a2.27,2.27,0,0,0,1.25-.37,5.32,5.32,0,0,1,4-1.11,2.17,2.17,0,0,0,1.78-.79c.32-.29.51-.73.84-1,.16-.14.5,0,.87-.07A1.24,1.24,0,0,1,83.65,74a1.14,1.14,0,0,1,.08,1.54c-.73.67-1.11-.28-1.73-.53,0,.22,0,.41,0,.6,0,.55.24,1.12.81,1.18A1.25,1.25,0,0,0,84.2,76a3.38,3.38,0,0,0,.28-1.24,5.85,5.85,0,0,0-.25-2.82c-.15-.27-.26-.57-.43-.94.19-.09.4-.27.61-.28,1.45,0,2.9,0,4.36,0a2.25,2.25,0,0,1,.54.18c-.3.39-.57.69-.78,1-.6.94-1.15,1.91-1.79,2.83s-1.37,1.85-2.07,2.77c-.36.47-.7.95-1.1,1.38A2.48,2.48,0,0,1,81.44,80M94.76,54A8.94,8.94,0,0,0,95,51.5c-.12-1.18,0-2.38,0-3.57,0-.35-.22-.69-.24-1-.05-.9,0-1.81-.09-2.69-.18-1.23-.47-2.44-.77-3.64s-.65-2.49-1-3.72-.78-2.39-1.23-3.57a20.5,20.5,0,0,0-1-2.11c-.37-.72-.81-1.4-1.17-2.12-.27-.53-.38-1.16-.69-1.65a33.67,33.67,0,0,0-4.09-6c-.45-.46-.79-1-1.25-1.5-1.25-1.2-2.49-2.41-3.82-3.51-1.17-1-2.46-1.8-3.69-2.69-.33-.24-.68-.45-1-.67-1.25-.8-2.47-1.64-3.76-2.38C70,10,68.86,9.49,67.7,8.92a18,18,0,0,0-2.18-1C64.28,7.52,63,7.2,61.75,6.85c-.76-.21-1.51-.43-2.28-.58s-1.61-.21-2.42-.32c-.45-.06-.9-.12-1.34-.2a22.92,22.92,0,0,0-3.24-.58c-2.6-.08-5.2,0-7.49,0a30.32,30.32,0,0,0-3.42.47c-1.36.35-2.68.88-4,1.33S35,7.7,33.72,8.21c-1.61.67-3.2,1.41-4.74,2.23-1.3.69-2.52,1.52-3.76,2.32a26.51,26.51,0,0,0-5.14,4.14c-.81.87-1.76,1.62-2.58,2.48a45.91,45.91,0,0,0-5.77,7.54,34,34,0,0,0-1.65,3c-.64,1.33-1.28,2.66-1.8,4a36.5,36.5,0,0,0-1.49,4.72,28.82,28.82,0,0,0-1.07,5.06c0,1.09-.49,2.16-.21,3.28a.87.87,0,0,1,0,.34,8.11,8.11,0,0,0-.23,1.24c0,1.13,0,2.26,0,3.4a14.9,14.9,0,0,0,0,1.67c.15,1.32.35,2.64.53,4A11.78,11.78,0,0,0,6,59.05c.22.84.53,1.66.76,2.49.3,1,.51,2.09.86,3.11.43,1.26.91,2.52,1.47,3.73s1.33,2.63,2,3.94a8.23,8.23,0,0,0,.53,1.07c.77,1.08,1.55,2.15,2.37,3.18s1.53,1.85,2.32,2.76,1.38,1.65,2.14,2.4c1.1,1.08,2.21,2.16,3.41,3.12a34,34,0,0,0,3.69,2.6c1.44.88,3,1.64,4.47,2.41a24.7,24.7,0,0,0,3.08,1.43c2.23.78,4.48,1.55,6.77,2.14a50.45,50.45,0,0,0,5.34.9,22,22,0,0,0,2.34.15c1.5.06,3,.18,4.51.11,1.69-.08,3.38-.33,5.06-.53a28.07,28.07,0,0,0,3.18-.5,35.34,35.34,0,0,0,3.81-1.15c2-.72,3.93-1.52,5.88-2.3a11,11,0,0,0,1.81-.87c1.32-.84,2.59-1.76,3.9-2.61a23.59,23.59,0,0,0,4.09-3.15c.67-.67,1.34-1.33,2-2a29.62,29.62,0,0,0,2.39-2.27c.91-1.09,1.68-2.31,2.5-3.48s1.55-2.14,2.21-3.28c.78-1.36,1.45-2.78,2.11-4.2a38.2,38.2,0,0,0,1.61-3.81c.52-1.51.89-3.08,1.3-4.63a18.54,18.54,0,0,0,.51-2.37c.15-1.14.12-2.31.32-3.45m.79-1.78a13.1,13.1,0,0,1-.13,1.42c-.09.84-.2,1.67-.28,2.51a22.68,22.68,0,0,1-.31,3.23c-.39,1.6-1,3.15-1.5,4.72q-.67,2-1.38,4.06a8.44,8.44,0,0,1-.54,1.22,47.28,47.28,0,0,1-2.53,4.54c-1.62,2.34-3.39,4.6-5.16,6.83a18.55,18.55,0,0,1-2.13,2c-.86.79-1.71,1.59-2.61,2.32-.72.59-1.5,1.11-2.27,1.63-1.31.89-2.6,1.82-3.95,2.64-1.17.71-2.4,1.3-3.62,1.91a26.9,26.9,0,0,1-2.64,1.17c-1,.36-2,.62-3,.93-1.31.39-2.61.83-3.93,1.16a21.56,21.56,0,0,1-2.94.49,47.58,47.58,0,0,1-8.07.42c-1.49-.1-3-.23-4.47-.44s-2.84-.47-4.24-.82a36.75,36.75,0,0,1-7.35-2.39c-2-.95-3.87-2-5.83-2.9a20.45,20.45,0,0,1-4.24-2.86c-.61-.51-1.17-1.07-1.82-1.52A20.18,20.18,0,0,1,17,81.09a47.43,47.43,0,0,1-4.84-5.92C11.06,73.46,10,71.76,9.06,70a37,37,0,0,1-2-4.85c-.56-1.65-1-3.35-1.41-5-.24-1-.3-2.1-.45-3.15s-.36-1.84-.42-2.76,0-2.12,0-3.19-.12-2.1-.12-3.15a17.12,17.12,0,0,1,.2-2c.1-.85.24-1.69.33-2.55a23.87,23.87,0,0,1,1-4.75,31.23,31.23,0,0,1,1.82-5.28c.62-1.17,1.1-2.41,1.68-3.6.66-1.36,1.28-2.75,2-4a23.6,23.6,0,0,1,2-2.64c.86-1.07,1.69-2.17,2.63-3.17a60.44,60.44,0,0,1,4.9-4.86,48.9,48.9,0,0,1,5.9-4.2,48,48,0,0,1,5.36-2.64,38.15,38.15,0,0,1,4.18-1.65c1.86-.59,3.75-1.09,5.65-1.52a31.46,31.46,0,0,1,3.3-.41v.08c1.84-.09,3.68-.31,5.51-.23A41.09,41.09,0,0,1,56,5.08c1,.16,2.05.29,3.06.52s2,.53,3,.85c1.49.47,3,.94,4.46,1.48,1.11.41,2.18.92,3.27,1.38a14,14,0,0,1,1.65.72c1.69,1,3.4,2,5,3.08,1.42,1,2.72,2.13,4.06,3.23q1.25,1,2.43,2.11a13.7,13.7,0,0,1,1,1.12c.65.74,1.35,1.43,1.92,2.22.87,1.19,1.7,2.42,2.45,3.69.88,1.48,1.64,3,2.49,4.54a19.79,19.79,0,0,1,1.49,3.68c.2.61.54,1.17.77,1.77.32.85.62,1.7.87,2.57.33,1.1.61,2.21.89,3.33a13.43,13.43,0,0,1,.35,1.78c.09.82,0,1.65.17,2.46a42,42,0,0,1,.26,6.63m.21,4.38a15.55,15.55,0,0,0,.46-2.44c0-2.83,0-5.65-.13-8.48a28.89,28.89,0,0,0-.56-4.08A13.85,13.85,0,0,0,94.62,38a16.93,16.93,0,0,1-.85-2.67,16.75,16.75,0,0,0-1-3.11c-.39-.75-.62-1.59-1-2.34-.68-1.26-1.4-2.51-2.15-3.73-1.2-1.92-2.4-3.85-3.7-5.71a14.7,14.7,0,0,0-2-2.08c-1.27-1.2-2.52-2.43-3.85-3.56a35.22,35.22,0,0,0-4-3.08c-1.76-1.1-3.67-2-5.47-3a29.87,29.87,0,0,0-5.94-2.32c-1.3-.42-2.61-.81-3.94-1.14s-2.79-.64-4.2-.89-3-.49-4.56-.68a13.84,13.84,0,0,0-2.28-.09c-1.14,0-2.28.17-3.42.26v0a7.21,7.21,0,0,0-1.45,0c-1.56.32-3.12.65-4.65,1.09a73.69,73.69,0,0,0-7.22,2.3,43,43,0,0,0-9.08,4.76c-1.25.9-2.41,1.92-3.6,2.9a23.31,23.31,0,0,0-2.09,1.83q-1.72,1.81-3.32,3.73c-1.11,1.32-2.19,2.67-3.19,4.06a22,22,0,0,0-1.76,3c-.91,1.81-1.75,3.65-2.6,5.49a19.39,19.39,0,0,0-.78,1.9c-.23.68-.4,1.37-.58,2.07-.37,1.43-.75,2.86-1.08,4.3-.18.77-.27,1.55-.4,2.33A13.88,13.88,0,0,0,4,46.11c.09,3.59-.37,7.2.38,10.76.33,1.55.6,3.12.89,4.68.07.38.07.77.17,1.14.14.52.6,1,.35,1.57,0,.09.13.27.22.4a3.25,3.25,0,0,1,.35.49A37.21,37.21,0,0,1,8,69a20.14,20.14,0,0,0,2,4.13,21.08,21.08,0,0,0,2.23,3.36c1,1.2,1.7,2.69,3.06,3.61.13.08.15.31.23.48a1.41,1.41,0,0,0,.21.42c.45.44.92.87,1.39,1.3,1.27,1.17,2.5,2.38,3.81,3.49a34.91,34.91,0,0,0,3.36,2.53c1,.64,2,1.12,3.05,1.68.77.42,1.52.9,2.32,1.25q2.34,1,4.72,2c1,.38,2,.68,3,1,.84.24,1.73.32,2.55.62a25.59,25.59,0,0,0,5.78,1c1.44.18,2.9.24,4.35.28A29,29,0,0,0,53,96c.81-.06,1.62-.2,2.43-.27a22.33,22.33,0,0,0,2.48-.17c1.45-.29,2.89-.66,4.31-1.08,1.64-.49,3.29-1,4.88-1.62,1.4-.54,2.75-1.21,4.09-1.87,1.07-.54,2.12-1.14,3.15-1.75A34.59,34.59,0,0,0,77.82,87a43.26,43.26,0,0,0,3.47-3.11C82.63,82.64,84,81.34,85.22,80A23.92,23.92,0,0,0,88,76.57a74.14,74.14,0,0,0,3.92-6.93,17.72,17.72,0,0,0,1.83-4.55A4.15,4.15,0,0,1,94.15,64a14.44,14.44,0,0,0,1.13-4.34c.15-1,.3-2.05.48-3.07m2.12-4.81c0,1.08-.25,2.15-.39,3.23s-.22,2.17-.42,3.23c-.17.88,0,1.86-.72,2.6a.75.75,0,0,0-.09.45,7.27,7.27,0,0,1-.88,3.16,1.46,1.46,0,0,0-.09.53,2.36,2.36,0,0,1,0,.62c-.56,1.43-1.11,2.87-1.74,4.28a23.49,23.49,0,0,1-1.3,2.39c-.9,1.53-1.78,3.07-2.75,4.55a30.08,30.08,0,0,1-2,2.61c-.68.83-1.37,1.66-2.11,2.43-1.46,1.53-2.89,3.08-4.44,4.51A26.13,26.13,0,0,1,77.43,89c-1.37.9-2.82,1.7-4.27,2.48-1,.54-2.09,1-3.14,1.46-.46.21-.92.42-1.39.6-1.33.51-2.67,1-4,1.49-.58.22-1.15.49-1.75.65-.91.24-1.84.41-2.77.59-1.44.28-2.87.54-4.31.81l-.2,0c-2.19.09-4.37.22-6.55.26a21.33,21.33,0,0,1-2.25-.24c-1.82-.16-3.64-.24-5.45-.46A13.53,13.53,0,0,1,39.17,96c-.53-.16-1.07-.3-1.61-.43-1-.24-2-.44-2.92-.72a30.93,30.93,0,0,1-3-1c-1.18-.48-2.34-1-3.48-1.59a35.8,35.8,0,0,1-3.31-1.88c-1.5-1-3-2.05-4.42-3.09-.6-.43-1.23-.84-1.79-1.32-.72-.61-1.39-1.28-2.06-1.94a8.63,8.63,0,0,0-1.31-1.34c-1.06-.65-1.52-1.79-2.36-2.62a31,31,0,0,1-2-2.71,19.48,19.48,0,0,1-2.46-4.05c-.78-1.65-1.72-3.23-2.5-4.88a4,4,0,0,1-.6-2.12c0-.27-.37-.55-.5-.85A23.68,23.68,0,0,1,3.71,61.4c-.19-.8-.5-1.57-.67-2.38-.12-.55,0-1.15-.14-1.71a18.58,18.58,0,0,0-.49-2.65,8.59,8.59,0,0,1-.05-2.6c0-1.53-.06-3.05,0-4.57a19.25,19.25,0,0,1,.39-2.38,5.33,5.33,0,0,0,.13-1,14.14,14.14,0,0,1,1-5c.24-.7.32-1.45.56-2.15.57-1.67,1.14-3.35,1.79-5,.56-1.42,1.2-2.81,1.86-4.17a17.49,17.49,0,0,1,1.19-1.86c1.08-1.64,2.11-3.32,3.25-4.92a25.89,25.89,0,0,1,2.07-2.26c.63-.69,1.21-1.45,1.89-2.09,1.18-1.1,2.41-2.14,3.64-3.18,1-.81,1.94-1.6,2.94-2.35a18.64,18.64,0,0,1,1.63-1l3.18-1.9A2,2,0,0,1,28,8.07l3.92-1.76a21.5,21.5,0,0,1,4.8-1.61c.82-.16,1.58-.62,2.39-.86S41,3.42,42,3.21l2.49-.54,0,.12c2-.08,4-.26,6-.23,1.58,0,3.16.3,4.73.48,1.12.13,2.25.25,3.36.46,1.54.29,3.07.65,4.59,1a21.1,21.1,0,0,1,2.24.71c1.09.4,2.18.8,3.23,1.28,1.42.65,2.77,1.44,4.19,2.06a33,33,0,0,1,6.53,4.26c1,.79,2.07,1.62,3,2.49s1.79,1.84,2.74,2.7a45.47,45.47,0,0,1,3.74,4.34,15.28,15.28,0,0,1,1.36,2.18c.53.88,1.06,1.76,1.57,2.66a27.44,27.44,0,0,1,1.46,2.72c.47,1.1.77,2.26,1.19,3.38.26.68.61,1.33.88,2,.16.39.17.84.36,1.21.4.81.14,1.81.49,2.48a22.68,22.68,0,0,1,.89,2.75,6.42,6.42,0,0,1,.13,1.49c.09.74.2,1.48.3,2.22,0,.19,0,.38,0,.57,0,.4.07.81.12,1.21,0,.18.12.35.12.52.05,1.35.16,2.7.11,4m2.38-.92c0-.77-.1-1.55-.12-2.32,0-1.25,0-2.5,0-3.75a21.75,21.75,0,0,0-.46-2.2c-.27-1.58-.51-3.18-.76-4.76a1.4,1.4,0,0,0-.12-.38A5.66,5.66,0,0,1,98.07,36c-.19-1.24-.95-2.33-.87-3.62,0-.07-.1-.15-.13-.23-.3-1-1.32-1.68-1.13-2.86,0-.09-.08-.2-.14-.31-.52-.94-1-1.9-1.56-2.82-.79-1.35-1.56-2.73-2.45-4-1-1.51-2.17-3-3.33-4.38-1-1.18-2-2.32-3-3.43a20.86,20.86,0,0,0-1.65-1.42c-.5-.43-1-.88-1.49-1.29s-1.15-.81-1.71-1.24c-.72-.55-1.37-1.21-2.14-1.69C77.25,8,76,7.34,74.74,6.64c-.7-.4-1.36-.85-2.07-1.22S71,4.55,70.1,4.18c-1.17-.49-2.35-1-3.55-1.36-1.46-.5-2.93-1-4.42-1.38-1.15-.29-2.36-.33-3.51-.6A28.64,28.64,0,0,0,52.83,0c-1,0-2.06,0-3.09,0a18.06,18.06,0,0,0-5.15.39,28.8,28.8,0,0,1-3.15.44,21,21,0,0,0-4.52,1c-.63.24-1.27.43-1.9.64-1.07.35-2.17.64-3.22,1.05S29.68,4.5,28.63,5C27.4,5.59,26.15,6.15,25,6.83s-2.48,1.55-3.71,2.35a18.79,18.79,0,0,0-1.88,1.33c-1.25,1.05-2.49,2.11-3.67,3.24s-2.38,2.36-3.49,3.61c-.73.81-1.31,1.75-2,2.63s-1.44,1.73-2.05,2.66c-.75,1.14-1.4,2.35-2.06,3.55s-1.36,2.54-2,3.84c-.31.65-.35,1.38-.66,2.07a35.48,35.48,0,0,0-1.38,4.05c-.11.34-.11.71-.2,1.06-.27,1.06-.57,2.12-.83,3.18C1,41,.91,41.54.79,42.12a23,23,0,0,0-.64,3c-.14,2-.14,4-.15,6,0,.94.11,1.87.17,2.81H.08c.06.77.11,1.55.19,2.32S.48,58.1.66,59a23.8,23.8,0,0,1,.68,3,17.91,17.91,0,0,0,1,3.77c.17.63.47,1.23.7,1.84C3.55,69,4,70.39,4.6,71.76c.17.42.55.74.76,1.14.59,1.13,1.1,2.3,1.72,3.4a30.86,30.86,0,0,0,1.89,3c.57.8,1.27,1.51,1.92,2.25.92,1,1.82,2.08,2.76,3.1.57.62,1.21,1.19,1.81,1.78s1,1.08,1.6,1.56,1.25,1,1.89,1.46c2.29,1.65,4.46,3.46,7.12,4.54,1.47.59,2.88,1.35,4.31,2a13.91,13.91,0,0,0,1.33.64c.84.29,1.69.53,2.54.78,1.06.31,2.13.63,3.19.92.84.23,1.67.45,2.52.64a26,26,0,0,0,2.57.46q2.17.25,4.36.38c1.47.09,2.94.19,4.41.16,1.26,0,2.52-.24,3.78-.38,1.1-.13,2.21-.24,3.31-.42s2.18-.42,3.25-.69c1.76-.45,3.52-.9,5.25-1.45a33.35,33.35,0,0,0,3.61-1.47c1.59-.73,3.18-1.48,4.72-2.3A26.47,26.47,0,0,0,78,91.55C79,90.79,80.09,90,81.14,89.2a30.51,30.51,0,0,0,2.6-2.06C84.91,86,86,84.82,87.13,83.63c.83-.88,1.67-1.76,2.41-2.71.92-1.19,1.77-2.44,2.61-3.69.65-1,1.25-2,1.87-3a17.06,17.06,0,0,0,1-1.58c.48-1,.91-2,1.35-3.07.34-.8.73-1.58,1-2.41.43-1.36.81-2.75,1.16-4.14a10.78,10.78,0,0,0,.71-3.44,3,3,0,0,1,.33-1.82c.64-.88.36-1.9.64-2.82a13.84,13.84,0,0,0,.1-4.07" transform="translate(0 0)"/>
</svg>
