<svg id="Livello_1" data-name="Livello 1" xmlns="http://www.w3.org/2000/svg" viewBox="0 0 170 27.87">
  <defs>
    <style>
      .cls-1 {
        fill: #707070;
      }

      .cls-2 {
        fill: #00696b;
      }
    </style>
  </defs>
  <title>header_mobile_typo_logo</title>
  <g>
    <path class="cls-1" d="M105.24,27c-1.75,0-2.53-1.38-2.53-3.22s.72-3.27,2.57-3.27,2.54,1.45,2.54,3.19-.77,3.3-2.59,3.3m0,.92c2.62,0,3.85-1.75,3.85-4.26s-1.3-4.06-3.75-4.06c-2.61,0-3.88,1.63-3.88,4.17s1.18,4.15,3.78,4.15m-12.94-.22h1V22.59c0-.37,0-.81,0-1.21.1.14.37.53.72,1l4.1,5.28H99V19.78h-1v4.79c0,.42,0,.87,0,1.27-.22-.34-.48-.69-.71-1l-3.89-5.07h-1Zm-4.12,0H89.3V19.78H88.17Zm-5.87-7c1.35,0,1.93.32,1.93,1.33,0,.82-.39,1.43-2,1.43H81.11V20.68Zm-2.33,7h1.14v-3.3h1.56c1,0,1.06.76,1.19,1.53.22,1.29.64,1.87,1.48,1.87a2.5,2.5,0,0,0,.34,0l.19-1c-.69,0-.82-.37-1-1.08-.18-.95-.21-1.4-.92-1.72a1.93,1.93,0,0,0,1.43-2c0-1.18-.71-2.17-2.61-2.17H80ZM73.66,27c-1.75,0-2.53-1.38-2.53-3.22s.72-3.27,2.58-3.27,2.54,1.45,2.54,3.19S75.47,27,73.66,27m0,.92c2.62,0,3.85-1.75,3.85-4.26s-1.3-4.06-3.75-4.06c-2.61,0-3.88,1.63-3.88,4.17s1.17,4.15,3.78,4.15M61.38,20.71h3.06v6.94h1.13V20.71h3.06v-.93H61.38Z"/>
    <path class="cls-2" d="M165.33,7.26c0-1.46.52-2.66,1.75-2.66s1.51.92,1.51,2.25v.4ZM163.82,8c0,2.69,1.26,3.81,3.36,3.81A2.83,2.83,0,0,0,170,9.56l-.64-.11a2.14,2.14,0,0,1-2.17,1.74c-1.27,0-1.87-.77-1.87-3.2V7.87H170V7.1c0-2-1-3-2.9-3S163.82,5.15,163.82,8m-7.66,3.59h6.05v-.79c0-.58.15-2.12.15-2.12h-.51c-.58,2.11-.71,2.33-1.29,2.33h-2.74l4.54-6.24V4.31h-5.82V5.1c0,.63-.1,2-.1,2h.51c.56-2.11.66-2.19,1.22-2.19h2.45l-4.46,6.24Zm-9.65,0h3.88V11h-1.16V8.47c0-1.18.58-3.73,2.35-3.73.87,0,1.14.45,1.14,1.72V11h-1.17v.58h3.88V11h-1.29V6.41a2,2,0,0,0-2.32-2.32,2.68,2.68,0,0,0-2.64,2h0V4.31h-2.78v.58h1.45V11h-1.3Zm-5.91-4.3c0-1.46.51-2.66,1.75-2.66s1.51.92,1.51,2.25v.4ZM139.09,8c0,2.69,1.26,3.81,3.36,3.81a2.83,2.83,0,0,0,2.82-2.22l-.64-.11a2.14,2.14,0,0,1-2.17,1.74c-1.27,0-1.87-.77-1.87-3.2V7.87h4.68V7.1c0-2-1-3-2.9-3S139.09,5.15,139.09,8M135,1.63A.94.94,0,1,0,136,.69a.94.94,0,0,0-.95.93m-.95,9.93h4V11h-1.3V4.31h-2.86v.58h1.45V11h-1.3ZM127,8c0,2.74,1.32,3.83,3.31,3.83A2.55,2.55,0,0,0,133,9.54l-.64-.11a1.92,1.92,0,0,1-2,1.75c-1.3,0-1.82-.9-1.82-3.24S129,4.6,130.32,4.6c.79,0,1.34.27,1.34,1.55a5.61,5.61,0,0,1,0,.69c.93,0,1.38-.5,1.38-1.14,0-1.06-1.27-1.61-2.66-1.61-2,0-3.33,1.11-3.33,3.86m-8.59,3.69H119l.27-.89a3.21,3.21,0,0,0,2.62,1,3.14,3.14,0,0,0,3.44-3.17c0-3.67-5.76-2.56-5.76-5.58,0-1,.68-1.72,2.11-1.72s2.35.82,2.35,1.79V4.17h.71V2.91A15,15,0,0,1,125.1.84h-.63l-.42.69s-.51-.84-2.28-.84c-2.21,0-3.35,1.3-3.35,3,0,3.86,5.71,2.78,5.71,5.73,0,1.19-1,1.72-2.16,1.72-1.69,0-2.77-1-2.77-2.08V8h-.71V9.56c0,1-.1,2.08-.1,2.08M108.12,7.26c0-1.46.51-2.66,1.75-2.66s1.51.92,1.51,2.25v.4ZM106.61,8c0,2.69,1.25,3.81,3.36,3.81a2.83,2.83,0,0,0,2.82-2.22l-.64-.11A2.14,2.14,0,0,1,110,11.19c-1.27,0-1.87-.77-1.87-3.2V7.87h4.68V7.1c0-2-1-3-2.9-3S106.61,5.15,106.61,8m-5,3.59h4V11h-1.3V0h-2.86V.58H103V11h-1.3Zm-4.44,0h4V11h-1.3V0H97.07V.58h1.45V11h-1.3Zm-5.6-4.3c0-1.46.51-2.66,1.75-2.66s1.51.92,1.51,2.25v.4ZM90.1,8c0,2.69,1.26,3.81,3.36,3.81a2.83,2.83,0,0,0,2.82-2.22l-.64-.11a2.14,2.14,0,0,1-2.17,1.74c-1.27,0-1.87-.77-1.87-3.2V7.87h4.68V7.1c0-2-1-3-2.9-3S90.1,5.15,90.1,8m-5.86,3.19c-.89,0-1.59-.6-1.59-3.15s.69-3.28,1.87-3.28,2,1.13,2,2.9-.82,3.54-2.28,3.54M81.14,8.06c0,2.14.84,3.72,2.86,3.72a2.6,2.6,0,0,0,2.5-1.58h0l.1,1.35h2.56V11h-1.3V0H85V.58h1.45V3.93c0,.51,0,1.09,0,1.09h0a2.42,2.42,0,0,0-2.11-.93c-2.06,0-3.2,1.45-3.2,4M71,9.93C71,8.53,72,8,73.88,8V9.32A2.12,2.12,0,0,1,72,11.17c-.63,0-1-.45-1-1.24m-1.53-.06a2,2,0,0,0,2.27,1.91A2.65,2.65,0,0,0,74,10.56h0a1.2,1.2,0,0,0,1.32,1.16,1.73,1.73,0,0,0,1.59-1.4l-.56-.19s-.19.89-.71.89c-.26,0-.37-.24-.37-.69V6.41c0-1.69-.79-2.32-2.72-2.32-1.69,0-2.78.56-2.78,1.48,0,.6.45,1.06,1.38,1.06a5.2,5.2,0,0,1,0-.68c0-.9.34-1.35,1.42-1.35S73.88,5,73.88,6V7.44c-2,0-4.39.63-4.39,2.43M65.56,1.63a.94.94,0,1,0,1-.93.94.94,0,0,0-1,.93m-.95,9.93h4V11h-1.3V4.31H64.47v.58h1.45V11h-1.3Zm-14.5,0H54V11H52.83V8.39c0-1.14.61-3.65,2.35-3.65.87,0,1.14.4,1.14,1.72V11H55.15v.58H58.9V11H57.74V8.42c0-1.14.59-3.69,2.35-3.69.87,0,1.14.42,1.14,1.72V11H60.06v.58h3.88V11H62.65V6.41a2,2,0,0,0-2.32-2.32,2.71,2.71,0,0,0-2.66,2.08h0c0-1.27-.59-2.08-2.2-2.08a2.68,2.68,0,0,0-2.64,2h0V4.31H50v.58h1.45V11h-1.3Zm-5.91-4.3c0-1.46.51-2.66,1.75-2.66s1.51.92,1.51,2.25v.4ZM42.69,8c0,2.69,1.26,3.81,3.36,3.81a2.83,2.83,0,0,0,2.82-2.22l-.64-.11a2.14,2.14,0,0,1-2.17,1.74c-1.27,0-1.87-.77-1.87-3.2V7.87h4.68V7.1c0-2-1-3-2.9-3S42.69,5.15,42.69,8m-5.86,3.19c-.88,0-1.59-.6-1.59-3.15s.69-3.28,1.87-3.28,2,1.13,2,2.9-.82,3.54-2.29,3.54m-3.1-3.09c0,2.14.84,3.72,2.86,3.72a2.6,2.6,0,0,0,2.49-1.58h0l.1,1.35h2.56V11h-1.3V0H37.59V.58H39V3.93c0,.51,0,1.09,0,1.09h0a2.42,2.42,0,0,0-2.11-.93c-2.06,0-3.2,1.45-3.2,4M27.18,9.93c0-1.4,1-1.88,2.86-1.88V9.32a2.12,2.12,0,0,1-1.88,1.85c-.63,0-1-.45-1-1.24m-1.53-.06a2,2,0,0,0,2.27,1.91,2.65,2.65,0,0,0,2.24-1.22h0a1.2,1.2,0,0,0,1.32,1.16,1.73,1.73,0,0,0,1.59-1.4l-.56-.19s-.19.89-.71.89c-.26,0-.37-.24-.37-.69V6.41c0-1.69-.79-2.32-2.72-2.32-1.69,0-2.78.56-2.78,1.48,0,.6.45,1.06,1.38,1.06a5.37,5.37,0,0,1,0-.68c0-.9.34-1.35,1.42-1.35S30,5,30,6V7.44c-2,0-4.39.63-4.39,2.43M18.49,8c0,2.74,1.32,3.83,3.32,3.83a2.55,2.55,0,0,0,2.66-2.24l-.64-.11a1.92,1.92,0,0,1-2,1.75C20.5,11.19,20,10.28,20,8S20.5,4.6,21.81,4.6c.79,0,1.34.27,1.34,1.55a5.61,5.61,0,0,1,0,.69c.93,0,1.38-.5,1.38-1.14,0-1.06-1.27-1.61-2.66-1.61-2,0-3.33,1.11-3.33,3.86M11.2,8c0,2.74,1.32,3.83,3.32,3.83a2.55,2.55,0,0,0,2.65-2.24l-.64-.11a1.92,1.92,0,0,1-2,1.75c-1.3,0-1.82-.9-1.82-3.24s.52-3.35,1.82-3.35c.79,0,1.34.27,1.34,1.55a5.61,5.61,0,0,1,0,.69c.93,0,1.38-.5,1.38-1.14,0-1.06-1.27-1.61-2.66-1.61-2,0-3.33,1.11-3.33,3.86M4.89,3.09,6.52,7.27H3.43ZM0,11.56H3.43V11H2.11L3.2,7.9H6.76L7.95,11H6.63v.58h4.23V11H9.62L5.7.76H5L1.37,11H0Z"/>
  </g>
</svg>
